<?xml version="1.0" encoding="UTF-8" standalone="no"?><!-- Generator: Gravit.io --><svg xmlns="http://www.w3.org/2000/svg" xmlns:xlink="http://www.w3.org/1999/xlink" style="isolation:isolate" viewBox="0 0 1084.99 822.75" width="1084.99pt" height="822.75pt"><defs><clipPath id="_clipPath_VUhbuOzz2rpkc2HIyPq1yjRv5jD2IARW"><rect width="1084.99" height="822.75"/></clipPath></defs><g clip-path="url(#_clipPath_VUhbuOzz2rpkc2HIyPq1yjRv5jD2IARW)"><path d=" M 214.14 8.38 C 214.14 8.38 210.37 23.09 236.72 64.67 C 236.72 64.67 261.24 112.14 259.72 124.03 C 259.72 124.03 258.29 142.43 242.98 157.03 C 242.98 157.03 197.11 172.09 190.98 181.48 C 184.85 190.87 201.11 225.01 201.11 225.01 C 201.11 225.01 216.73 266.48 160.64 282.39 C 160.64 282.39 116.75 282.45 104.58 292.12 C 104.58 292.12 109.29 275.29 94.65 250.54 C 80.01 225.79 100.18 201.66 100.18 201.66 C 100.18 201.66 116.42 192.72 126.73 192.03 C 137.04 191.34 140.31 186.62 133.68 174.77 C 133.68 174.77 124.09 169.77 110.81 180.48 C 97.53 191.19 87.61 198.82 76.04 197.92 C 64.47 197.02 47.97 192.14 37.14 170.73 C 26.31 149.32 20.61 119.05 12.5 105.23 C 4.39 91.41 0 88.38 0 88.38 C 0 88.38 10.25 96.16 45.64 69.75 C 81.03 43.34 99.5 54.64 99.5 54.64 C 99.5 54.64 127.94 62.28 132.5 112.43 C 132.5 112.43 140.77 160.22 157.58 131.27 C 157.58 131.27 151.89 114.97 140.52 90.97 C 129.15 66.97 159.58 44.38 181.86 36.82 C 204.14 29.26 214.14 8.38 214.14 8.38 Z " fill="rgb(240,40,40)"/><path d=" M 30.99 98.97 L 30.89 98.72 C 37.89 95.8 70.18 113.29 96 128.48 L 95.86 128.71 C 59.44 107.29 36.4 96.73 30.99 98.97 Z " fill="rgb(68,64,83)"/><path d=" M 95.33 128.38 L 95.61 128.23 C 116.23 140.38 140.97 155.8 159.5 168.32 C 161.26 169.51 163.09 170.69 164.96 171.8 L 164.67 172.27 C 162.8 171.15 160.96 169.97 159.19 168.77 C 140.68 156.26 115.94 140.52 95.33 128.38 Z " fill="rgb(68,64,83)"/><path d=" M 164.13 171.97 L 164.59 171.61 C 201.76 193.92 254.05 188.61 254.51 188.61 L 248.74 195.16 C 248.28 195.19 201.56 194.43 164.13 171.97 Z " fill="rgb(68,64,83)"/><mask id="_mask_kctPCwS6J3Ac7wzAN8X6nD9sqqVyWyFI" x="-200%" y="-200%" width="400%" height="400%"><rect x="-200%" y="-200%" width="400%" height="400%" style="fill:white;"/><path d=" M 200.18 41.99 C 200.18 41.99 188.01 75.88 197.26 99.76 C 197.26 99.76 187.26 182.81 187.26 182.81 C 187.26 182.81 180.87 207.7 170.59 213.92 C 170.59 213.92 155.68 232.43 146.94 234.55 C 138.2 236.67 118.1 255.45 118.63 265.84" fill="black" stroke="none"/></mask><path d=" M 200.18 41.99 C 200.18 41.99 188.01 75.88 197.26 99.76 C 197.26 99.76 187.26 182.81 187.26 182.81 C 187.26 182.81 180.87 207.7 170.59 213.92 C 170.59 213.92 155.68 232.43 146.94 234.55 C 138.2 236.67 118.1 255.45 118.63 265.84" fill="none" mask="url(#_mask_kctPCwS6J3Ac7wzAN8X6nD9sqqVyWyFI)" vector-effect="non-scaling-stroke" stroke-width="2" stroke="rgb(68,64,83)" stroke-linejoin="miter" stroke-linecap="butt" stroke-miterlimit="10"/><path d=" M 200.18 41.99 C 200.18 41.99 188.01 75.88 197.26 99.76 C 197.26 99.76 187.26 182.81 187.26 182.81 C 187.26 182.81 180.87 207.7 170.59 213.92 C 170.59 213.92 155.68 232.43 146.94 234.55 C 138.2 236.67 118.1 255.45 118.63 265.84" fill="none"/><mask id="_mask_GpYQgP3MiwBr0pMnN8fsOydQQaVwRV2q" x="-200%" y="-200%" width="400%" height="400%"><rect x="-200%" y="-200%" width="400%" height="400%" style="fill:white;"/><path d=" M 216.64 44.38 C 216.64 44.38 208.06 61.78 195.29 61.63" fill="black" stroke="none"/></mask><path d=" M 216.64 44.38 C 216.64 44.38 208.06 61.78 195.29 61.63" fill="none" mask="url(#_mask_GpYQgP3MiwBr0pMnN8fsOydQQaVwRV2q)" vector-effect="non-scaling-stroke" stroke-width="2" stroke="rgb(68,64,83)" stroke-linejoin="miter" stroke-linecap="butt" stroke-miterlimit="10"/><path d=" M 216.64 44.38 C 216.64 44.38 208.06 61.78 195.29 61.63" fill="none"/><mask id="_mask_6yZahDTQ3xOtzrta171X4YqFAzhyGRM3" x="-200%" y="-200%" width="400%" height="400%"><rect x="-200%" y="-200%" width="400%" height="400%" style="fill:white;"/><path d=" M 233.84 67 C 233.84 67 228.65 90.93 196.5 97.62" fill="black" stroke="none"/></mask><path d=" M 233.84 67 C 233.84 67 228.65 90.93 196.5 97.62" fill="none" mask="url(#_mask_6yZahDTQ3xOtzrta171X4YqFAzhyGRM3)" vector-effect="non-scaling-stroke" stroke-width="2" stroke="rgb(68,64,83)" stroke-linejoin="miter" stroke-linecap="butt" stroke-miterlimit="10"/><path d=" M 233.84 67 C 233.84 67 228.65 90.93 196.5 97.62" fill="none"/><mask id="_mask_VOxNAyV9BepkI9pW8tB0uWpLTr6KWOU1" x="-200%" y="-200%" width="400%" height="400%"><rect x="-200%" y="-200%" width="400%" height="400%" style="fill:white;"/><path d=" M 247.23 102.66 C 247.23 102.66 232.1 126.9 199.5 123.95" fill="black" stroke="none"/></mask><path d=" M 247.23 102.66 C 247.23 102.66 232.1 126.9 199.5 123.95" fill="none" mask="url(#_mask_VOxNAyV9BepkI9pW8tB0uWpLTr6KWOU1)" vector-effect="non-scaling-stroke" stroke-width="2" stroke="rgb(68,64,83)" stroke-linejoin="miter" stroke-linecap="butt" stroke-miterlimit="10"/><path d=" M 247.23 102.66 C 247.23 102.66 232.1 126.9 199.5 123.95" fill="none"/><mask id="_mask_ypIwKLJTsaY3jGEVjCZfSKM2em8SGPdk" x="-200%" y="-200%" width="400%" height="400%"><rect x="-200%" y="-200%" width="400%" height="400%" style="fill:white;"/><path d=" M 244.4 148.07 C 244.4 148.07 215.93 166.72 194.4 156.48" fill="black" stroke="none"/></mask><path d=" M 244.4 148.07 C 244.4 148.07 215.93 166.72 194.4 156.48" fill="none" mask="url(#_mask_ypIwKLJTsaY3jGEVjCZfSKM2em8SGPdk)" vector-effect="non-scaling-stroke" stroke-width="2" stroke="rgb(68,64,83)" stroke-linejoin="miter" stroke-linecap="butt" stroke-miterlimit="10"/><path d=" M 244.4 148.07 C 244.4 148.07 215.93 166.72 194.4 156.48" fill="none"/><mask id="_mask_Hl33AjQd6mRNqnVXi7Xb38TZ08P19xnU" x="-200%" y="-200%" width="400%" height="400%"><rect x="-200%" y="-200%" width="400%" height="400%" style="fill:white;"/><path d=" M 180.06 44.38 C 180.06 44.38 187.5 60.12 195.73 55.38" fill="black" stroke="none"/></mask><path d=" M 180.06 44.38 C 180.06 44.38 187.5 60.12 195.73 55.38" fill="none" mask="url(#_mask_Hl33AjQd6mRNqnVXi7Xb38TZ08P19xnU)" vector-effect="non-scaling-stroke" stroke-width="2" stroke="rgb(68,64,83)" stroke-linejoin="miter" stroke-linecap="butt" stroke-miterlimit="10"/><path d=" M 180.06 44.38 C 180.06 44.38 187.5 60.12 195.73 55.38" fill="none"/><mask id="_mask_9CoCdwxEwThYTIsOZ4BJZCOgIVwSQz29" x="-200%" y="-200%" width="400%" height="400%"><rect x="-200%" y="-200%" width="400%" height="400%" style="fill:white;"/><path d=" M 152.82 68.29 C 152.82 68.29 162.82 89.41 194.11 85.7" fill="black" stroke="none"/></mask><path d=" M 152.82 68.29 C 152.82 68.29 162.82 89.41 194.11 85.7" fill="none" mask="url(#_mask_9CoCdwxEwThYTIsOZ4BJZCOgIVwSQz29)" vector-effect="non-scaling-stroke" stroke-width="2" stroke="rgb(68,64,83)" stroke-linejoin="miter" stroke-linecap="butt" stroke-miterlimit="10"/><path d=" M 152.82 68.29 C 152.82 68.29 162.82 89.41 194.11 85.7" fill="none"/><mask id="_mask_TXR8k9BaJZH6t0I7Q8ZXIZmpLU4BLl1s" x="-200%" y="-200%" width="400%" height="400%"><rect x="-200%" y="-200%" width="400%" height="400%" style="fill:white;"/><path d=" M 149.8 100.05 C 149.8 100.05 177.32 116.77 199.64 112.24" fill="black" stroke="none"/></mask><path d=" M 149.8 100.05 C 149.8 100.05 177.32 116.77 199.64 112.24" fill="none" mask="url(#_mask_TXR8k9BaJZH6t0I7Q8ZXIZmpLU4BLl1s)" vector-effect="non-scaling-stroke" stroke-width="2" stroke="rgb(68,64,83)" stroke-linejoin="miter" stroke-linecap="butt" stroke-miterlimit="10"/><path d=" M 149.8 100.05 C 149.8 100.05 177.32 116.77 199.64 112.24" fill="none"/><mask id="_mask_deG1MHSFUdy616qM420KCGmLbBlQWlcv" x="-200%" y="-200%" width="400%" height="400%"><rect x="-200%" y="-200%" width="400%" height="400%" style="fill:white;"/><path d=" M 164.29 133.9 C 164.29 133.9 186.07 151.27 196.29 147.28" fill="black" stroke="none"/></mask><path d=" M 164.29 133.9 C 164.29 133.9 186.07 151.27 196.29 147.28" fill="none" mask="url(#_mask_deG1MHSFUdy616qM420KCGmLbBlQWlcv)" vector-effect="non-scaling-stroke" stroke-width="2" stroke="rgb(68,64,83)" stroke-linejoin="miter" stroke-linecap="butt" stroke-miterlimit="10"/><path d=" M 164.29 133.9 C 164.29 133.9 186.07 151.27 196.29 147.28" fill="none"/><mask id="_mask_kN5sXJdZKG61G9VEKxIhAHknkjZTiTcq" x="-200%" y="-200%" width="400%" height="400%"><rect x="-200%" y="-200%" width="400%" height="400%" style="fill:white;"/><path d=" M 159.19 146.85 C 159.19 146.85 165.08 165.1 159.29 168.55" fill="black" stroke="none"/></mask><path d=" M 159.19 146.85 C 159.19 146.85 165.08 165.1 159.29 168.55" fill="none" mask="url(#_mask_kN5sXJdZKG61G9VEKxIhAHknkjZTiTcq)" vector-effect="non-scaling-stroke" stroke-width="2" stroke="rgb(68,64,83)" stroke-linejoin="miter" stroke-linecap="butt" stroke-miterlimit="10"/><path d=" M 159.19 146.85 C 159.19 146.85 165.08 165.1 159.29 168.55" fill="none"/><mask id="_mask_BFa3WEID8WwLg9GaoC3pUe6gIFCZXK1S" x="-200%" y="-200%" width="400%" height="400%"><rect x="-200%" y="-200%" width="400%" height="400%" style="fill:white;"/><path d=" M 139.9 174.22 C 139.9 174.22 151.13 163.07 148 161.02" fill="black" stroke="none"/></mask><path d=" M 139.9 174.22 C 139.9 174.22 151.13 163.07 148 161.02" fill="none" mask="url(#_mask_BFa3WEID8WwLg9GaoC3pUe6gIFCZXK1S)" vector-effect="non-scaling-stroke" stroke-width="2" stroke="rgb(68,64,83)" stroke-linejoin="miter" stroke-linecap="butt" stroke-miterlimit="10"/><path d=" M 139.9 174.22 C 139.9 174.22 151.13 163.07 148 161.02" fill="none"/><mask id="_mask_ez1mkRSNoIZrcIsyAFLsAv1VcKMbognG" x="-200%" y="-200%" width="400%" height="400%"><rect x="-200%" y="-200%" width="400%" height="400%" style="fill:white;"/><path d=" M 119.27 81.6 C 119.27 81.6 129.1 128.29 116.33 140.89" fill="black" stroke="none"/></mask><path d=" M 119.27 81.6 C 119.27 81.6 129.1 128.29 116.33 140.89" fill="none" mask="url(#_mask_ez1mkRSNoIZrcIsyAFLsAv1VcKMbognG)" vector-effect="non-scaling-stroke" stroke-width="2" stroke="rgb(68,64,83)" stroke-linejoin="miter" stroke-linecap="butt" stroke-miterlimit="10"/><path d=" M 119.27 81.6 C 119.27 81.6 129.1 128.29 116.33 140.89" fill="none"/><mask id="_mask_pcJ4uIunWPqHJiF5Q2W9l0j9K6I3pP0O" x="-200%" y="-200%" width="400%" height="400%"><rect x="-200%" y="-200%" width="400%" height="400%" style="fill:white;"/><path d=" M 78.17 192.69 C 78.17 192.69 122.66 164.12 126.54 147.24" fill="black" stroke="none"/></mask><path d=" M 78.17 192.69 C 78.17 192.69 122.66 164.12 126.54 147.24" fill="none" mask="url(#_mask_pcJ4uIunWPqHJiF5Q2W9l0j9K6I3pP0O)" vector-effect="non-scaling-stroke" stroke-width="2" stroke="rgb(68,64,83)" stroke-linejoin="miter" stroke-linecap="butt" stroke-miterlimit="10"/><path d=" M 78.17 192.69 C 78.17 192.69 122.66 164.12 126.54 147.24" fill="none"/><mask id="_mask_soz5yIW4rA30VpHF6n3U36r4rdH9TNrP" x="-200%" y="-200%" width="400%" height="400%"><rect x="-200%" y="-200%" width="400%" height="400%" style="fill:white;"/><path d=" M 52.4 172.55 C 52.4 172.55 94.25 153.04 105.6 134.35" fill="black" stroke="none"/></mask><path d=" M 52.4 172.55 C 52.4 172.55 94.25 153.04 105.6 134.35" fill="none" mask="url(#_mask_soz5yIW4rA30VpHF6n3U36r4rdH9TNrP)" vector-effect="non-scaling-stroke" stroke-width="2" stroke="rgb(68,64,83)" stroke-linejoin="miter" stroke-linecap="butt" stroke-miterlimit="10"/><path d=" M 52.4 172.55 C 52.4 172.55 94.25 153.04 105.6 134.35" fill="none"/><mask id="_mask_kmx43f4QlUjunV4vaJSfYLx4g4RKl9Eb" x="-200%" y="-200%" width="400%" height="400%"><rect x="-200%" y="-200%" width="400%" height="400%" style="fill:white;"/><path d=" M 80.5 66.64 C 80.5 66.64 100.75 100.42 88.1 124.06" fill="black" stroke="none"/></mask><path d=" M 80.5 66.64 C 80.5 66.64 100.75 100.42 88.1 124.06" fill="none" mask="url(#_mask_kmx43f4QlUjunV4vaJSfYLx4g4RKl9Eb)" vector-effect="non-scaling-stroke" stroke-width="1.5" stroke="rgb(68,64,83)" stroke-linejoin="miter" stroke-linecap="butt" stroke-miterlimit="10"/><path d=" M 80.5 66.64 C 80.5 66.64 100.75 100.42 88.1 124.06" fill="none"/><mask id="_mask_Oh9CT2bUdkW5KEKVdgD6dYqTzIzuu0bn" x="-200%" y="-200%" width="400%" height="400%"><rect x="-200%" y="-200%" width="400%" height="400%" style="fill:white;"/><path d=" M 38.75 141.87 C 38.75 141.87 69.75 129.32 76.02 117.23" fill="black" stroke="none"/></mask><path d=" M 38.75 141.87 C 38.75 141.87 69.75 129.32 76.02 117.23" fill="none" mask="url(#_mask_Oh9CT2bUdkW5KEKVdgD6dYqTzIzuu0bn)" vector-effect="non-scaling-stroke" stroke-width="1.5" stroke="rgb(68,64,83)" stroke-linejoin="miter" stroke-linecap="butt" stroke-miterlimit="10"/><path d=" M 38.75 141.87 C 38.75 141.87 69.75 129.32 76.02 117.23" fill="none"/><mask id="_mask_3cdIq6Jaaf6rkI9enZmBAVdcpeYSYWAB" x="-200%" y="-200%" width="400%" height="400%"><rect x="-200%" y="-200%" width="400%" height="400%" style="fill:white;"/><path d=" M 45.29 76.94 C 45.29 76.94 55.66 96.06 50.83 104.37" fill="black" stroke="none"/></mask><path d=" M 45.29 76.94 C 45.29 76.94 55.66 96.06 50.83 104.37" fill="none" mask="url(#_mask_3cdIq6Jaaf6rkI9enZmBAVdcpeYSYWAB)" vector-effect="non-scaling-stroke" stroke-width="1.5" stroke="rgb(68,64,83)" stroke-linejoin="miter" stroke-linecap="butt" stroke-miterlimit="10"/><path d=" M 45.29 76.94 C 45.29 76.94 55.66 96.06 50.83 104.37" fill="none"/><mask id="_mask_yF3WWBgWA8hNQ3PY4yV7FNkQtU2v5JHt" x="-200%" y="-200%" width="400%" height="400%"><rect x="-200%" y="-200%" width="400%" height="400%" style="fill:white;"/><path d=" M 152.73 190.06 C 152.73 190.06 180.73 186.31 183.73 193.62" fill="black" stroke="none"/></mask><path d=" M 152.73 190.06 C 152.73 190.06 180.73 186.31 183.73 193.62" fill="none" mask="url(#_mask_yF3WWBgWA8hNQ3PY4yV7FNkQtU2v5JHt)" vector-effect="non-scaling-stroke" stroke-width="2" stroke="rgb(68,64,83)" stroke-linejoin="miter" stroke-linecap="butt" stroke-miterlimit="10"/><path d=" M 152.73 190.06 C 152.73 190.06 180.73 186.31 183.73 193.62" fill="none"/><mask id="_mask_7Bzb9YXSzwaunQNzMzZoURF9Pd2gcBhg" x="-200%" y="-200%" width="400%" height="400%"><rect x="-200%" y="-200%" width="400%" height="400%" style="fill:white;"/><path d=" M 197.5 247.44 C 197.5 247.44 195.99 216.82 178.5 204.98" fill="black" stroke="none"/></mask><path d=" M 197.5 247.44 C 197.5 247.44 195.99 216.82 178.5 204.98" fill="none" mask="url(#_mask_7Bzb9YXSzwaunQNzMzZoURF9Pd2gcBhg)" vector-effect="non-scaling-stroke" stroke-width="2" stroke="rgb(68,64,83)" stroke-linejoin="miter" stroke-linecap="butt" stroke-miterlimit="10"/><path d=" M 197.5 247.44 C 197.5 247.44 195.99 216.82 178.5 204.98" fill="none"/><mask id="_mask_N2VWEYqOC2h3K0gG305UglFkhMO1K149" x="-200%" y="-200%" width="400%" height="400%"><rect x="-200%" y="-200%" width="400%" height="400%" style="fill:white;"/><path d=" M 120.72 202.38 C 120.72 202.38 150.11 205.85 160.5 225.02" fill="black" stroke="none"/></mask><path d=" M 120.72 202.38 C 120.72 202.38 150.11 205.85 160.5 225.02" fill="none" mask="url(#_mask_N2VWEYqOC2h3K0gG305UglFkhMO1K149)" vector-effect="non-scaling-stroke" stroke-width="2" stroke="rgb(68,64,83)" stroke-linejoin="miter" stroke-linecap="butt" stroke-miterlimit="10"/><path d=" M 120.72 202.38 C 120.72 202.38 150.11 205.85 160.5 225.02" fill="none"/><mask id="_mask_BPD245tO7Gxf6EEwAoZJVhbGGdD8oGl5" x="-200%" y="-200%" width="400%" height="400%"><rect x="-200%" y="-200%" width="400%" height="400%" style="fill:white;"/><path d=" M 170.01 269.65 C 170.01 269.65 174.55 247.22 153.08 231.36" fill="black" stroke="none"/></mask><path d=" M 170.01 269.65 C 170.01 269.65 174.55 247.22 153.08 231.36" fill="none" mask="url(#_mask_BPD245tO7Gxf6EEwAoZJVhbGGdD8oGl5)" vector-effect="non-scaling-stroke" stroke-width="2" stroke="rgb(68,64,83)" stroke-linejoin="miter" stroke-linecap="butt" stroke-miterlimit="10"/><path d=" M 170.01 269.65 C 170.01 269.65 174.55 247.22 153.08 231.36" fill="none"/><mask id="_mask_ch98SSDZ6L3owp8XaOkbD2XNg7YIX5qk" x="-200%" y="-200%" width="400%" height="400%"><rect x="-200%" y="-200%" width="400%" height="400%" style="fill:white;"/><path d=" M 99.55 229.48 C 99.55 229.48 123.93 228.23 136.99 239.82" fill="black" stroke="none"/></mask><path d=" M 99.55 229.48 C 99.55 229.48 123.93 228.23 136.99 239.82" fill="none" mask="url(#_mask_ch98SSDZ6L3owp8XaOkbD2XNg7YIX5qk)" vector-effect="non-scaling-stroke" stroke-width="2" stroke="rgb(68,64,83)" stroke-linejoin="miter" stroke-linecap="butt" stroke-miterlimit="10"/><path d=" M 99.55 229.48 C 99.55 229.48 123.93 228.23 136.99 239.82" fill="none"/><mask id="_mask_59GAJQSmrshO5Jr9SB7WvHFhAaBDkBNL" x="-200%" y="-200%" width="400%" height="400%"><rect x="-200%" y="-200%" width="400%" height="400%" style="fill:white;"/><path d=" M 133.15 273.82 C 133.15 273.82 130.87 256.02 124.51 252.65" fill="black" stroke="none"/></mask><path d=" M 133.15 273.82 C 133.15 273.82 130.87 256.02 124.51 252.65" fill="none" mask="url(#_mask_59GAJQSmrshO5Jr9SB7WvHFhAaBDkBNL)" vector-effect="non-scaling-stroke" stroke-width="2" stroke="rgb(68,64,83)" stroke-linejoin="miter" stroke-linecap="butt" stroke-miterlimit="10"/><path d=" M 133.15 273.82 C 133.15 273.82 130.87 256.02 124.51 252.65" fill="none"/><g opacity="0.51"><path d=" M 511.29 197.38 C 456.42 224.99 396.41 237.03 337.9 246.31 C 279.39 255.59 220.33 262.74 162.67 282.14 C 125.59 294.62 86.4 314.83 68.12 346.23 C 50.5 376.38 57.01 408.53 66.33 436.55 C 73.33 457.62 82.33 478.94 101.49 491.82 C 114.81 500.76 132.1 504.95 146.62 512.56 C 197.13 539.01 205.32 601.05 197.18 658.12 C 193.36 684.89 186.8 712.01 186.89 738.25 C 186.98 764.49 194.55 790.49 215.37 805.99 C 236.01 821.35 267 824.47 297.37 821.99 C 359.08 816.99 421.13 791.4 480.23 763.9 C 611.09 703.03 736.44 630.46 861.5 558.07 C 907.76 531.28 954.23 504.36 996.82 472.63 C 1020.47 455.01 1043.82 434.77 1054.74 410.55 C 1068.65 379.81 1058.04 346.32 1030 332.49 C 983 309.29 904.42 339.88 863.89 309.58 C 841.5 292.9 838.58 262.38 842.23 233.73 C 850.05 172.17 882.37 104.32 857.7 52.23 C 840.76 16.45 796.18 -4.37 747.5 0.78 C 696.5 6.18 639.98 39.71 624.78 84.91 C 609.16 131.46 559.74 172.95 511.29 197.38 Z " fill="rgb(240,40,40)"/></g><g opacity="0.1"><ellipse vector-effect="non-scaling-stroke" cx="642.84" cy="761.32" rx="100.11000000000001" ry="24.730000000000018" fill="rgb(240,40,40)"/></g><defs><linearGradient id="_lgradient_2" x1="0.49999473866972516" y1="0.9999999999999998" x2="0.4999947386697252" y2="0"><stop offset="0%" style="stop-color:rgba(128,128,128,0.25)"/><stop offset="54%" style="stop-color:rgba(128,128,128,0.12)"/><stop offset="100%" style="stop-color:rgba(128,128,128,0.1)"/></linearGradient></defs><path d="M 147.15 135.71 L 1072.5 135.71 C 1079.393 135.71 1084.99 141.307 1084.99 148.2 L 1084.99 661.55 C 1084.99 668.443 1079.393 674.04 1072.5 674.04 L 147.15 674.04 C 140.257 674.04 134.66 668.443 134.66 661.55 L 134.66 148.2 C 134.66 141.307 140.257 135.71 147.15 135.71 Z" style="stroke:none;fill:url(#_lgradient_2);stroke-miterlimit:10;"/><path d="M 148.66 143.28 L 1071.1 143.28 C 1077.993 143.28 1083.59 148.877 1083.59 155.77 L 1083.59 659.76 C 1083.59 666.653 1077.993 672.25 1071.1 672.25 L 148.66 672.25 C 141.767 672.25 136.17 666.653 136.17 659.76 L 136.17 155.77 C 136.17 148.877 141.767 143.28 148.66 143.28 Z" style="stroke:none;fill:#FFFFFF;stroke-miterlimit:10;"/><path d="M 148.66 143.28 L 1071.1 143.28 C 1077.993 143.28 1083.59 148.877 1083.59 155.77 L 1083.59 659.76 C 1083.59 666.653 1077.993 672.25 1071.1 672.25 L 148.66 672.25 C 141.767 672.25 136.17 666.653 136.17 659.76 L 136.17 155.77 C 136.17 148.877 141.767 143.28 148.66 143.28 Z" style="stroke:none;fill:#FFFFFF;stroke-miterlimit:10;"/><g style="mix-blend-mode:normal;" opacity="0.04"><path d="M 148.66 143.28 L 1071.1 143.28 C 1077.993 143.28 1083.59 148.877 1083.59 155.77 L 1083.59 659.76 C 1083.59 666.653 1077.993 672.25 1071.1 672.25 L 148.66 672.25 C 141.767 672.25 136.17 666.653 136.17 659.76 L 136.17 155.77 C 136.17 148.877 141.767 143.28 148.66 143.28 Z" style="stroke:none;fill:#5A5773;stroke-miterlimit:10;"/></g><path d=" M 1078.79 137.21 L 140.99 137.21 C 139.714 137.21 138.491 137.717 137.589 138.619 C 136.687 139.521 136.18 140.744 136.18 142.02 L 136.18 162.38 L 1083.6 162.38 L 1083.6 142.02 C 1083.6 139.364 1081.446 137.21 1078.79 137.21 L 1078.79 137.21 Z " fill="rgb(70,70,70)"/><g><circle vector-effect="non-scaling-stroke" cx="155.09" cy="149.78" r="6.5" fill="rgb(255,255,255)"/><circle vector-effect="non-scaling-stroke" cx="172.59" cy="149.78" r="6.5" fill="rgb(255,255,255)"/><circle vector-effect="non-scaling-stroke" cx="190.09" cy="149.78" r="6.5" fill="rgb(255,255,255)"/></g><g style="mix-blend-mode:normal;" opacity="0.1"><path d="M 209.78 279.47 L 979.4 279.47 C 985.024 279.47 989.59 284.036 989.59 289.66 L 989.59 573.28 C 989.59 578.904 985.024 583.47 979.4 583.47 L 209.78 583.47 C 204.156 583.47 199.59 578.904 199.59 573.28 L 199.59 289.66 C 199.59 284.036 204.156 279.47 209.78 279.47 Z" style="stroke:none;fill:#F02828;stroke-miterlimit:10;"/></g><path d="M 229.037 250.013 L 998.407 269.622 C 1004.029 269.765 1008.477 274.446 1008.334 280.069 L 1001.107 563.596 C 1000.964 569.219 996.283 573.667 990.661 573.524 L 221.291 553.914 C 215.669 553.771 211.221 549.09 211.364 543.468 L 218.59 259.94 C 218.734 254.318 223.414 249.87 229.037 250.013 Z" style="stroke:none;fill:#FFFFFF;stroke-miterlimit:10;"/><g opacity="0.2"><mask id="_mask_ith9fu4VdGTIC0siusKw7LFVUzLs6VBR" x="-200%" y="-200%" width="400%" height="400%"><rect x="-200%" y="-200%" width="400%" height="400%" style="fill:white;"/><line x1="337.02" y1="314.26" x2="887.34" y2="328.25" fill="black" stroke="none"/></mask><line x1="337.02" y1="314.26" x2="887.34" y2="328.25" mask="url(#_mask_ith9fu4VdGTIC0siusKw7LFVUzLs6VBR)" vector-effect="non-scaling-stroke" stroke-width="2" stroke="rgb(90,87,115)" stroke-linejoin="miter" stroke-linecap="butt" stroke-miterlimit="10"/></g><g opacity="0.2"><mask id="_mask_QgfbG67cVoegYkyV2fmsOYNx6FRV0h8D" x="-200%" y="-200%" width="400%" height="400%"><rect x="-200%" y="-200%" width="400%" height="400%" style="fill:white;"/><line x1="335.93" y1="357.25" x2="886.25" y2="371.24" fill="black" stroke="none"/></mask><line x1="335.93" y1="357.25" x2="886.25" y2="371.24" mask="url(#_mask_QgfbG67cVoegYkyV2fmsOYNx6FRV0h8D)" vector-effect="non-scaling-stroke" stroke-width="2" stroke="rgb(90,87,115)" stroke-linejoin="miter" stroke-linecap="butt" stroke-miterlimit="10"/></g><g opacity="0.2"><mask id="_mask_vDVSSwcSQolX8YXTQkxg9uT426PWvuio" x="-200%" y="-200%" width="400%" height="400%"><rect x="-200%" y="-200%" width="400%" height="400%" style="fill:white;"/><line x1="334.84" y1="400.23" x2="885.16" y2="414.22" fill="black" stroke="none"/></mask><line x1="334.84" y1="400.23" x2="885.16" y2="414.22" mask="url(#_mask_vDVSSwcSQolX8YXTQkxg9uT426PWvuio)" vector-effect="non-scaling-stroke" stroke-width="2" stroke="rgb(90,87,115)" stroke-linejoin="miter" stroke-linecap="butt" stroke-miterlimit="10"/></g><g opacity="0.2"><mask id="_mask_FQXiQ6EhvCdhAJXmSbKuTQTbnXFwlUJ9" x="-200%" y="-200%" width="400%" height="400%"><rect x="-200%" y="-200%" width="400%" height="400%" style="fill:white;"/><line x1="333.74" y1="443.22" x2="884.07" y2="457.21" fill="black" stroke="none"/></mask><line x1="333.74" y1="443.22" x2="884.07" y2="457.21" mask="url(#_mask_FQXiQ6EhvCdhAJXmSbKuTQTbnXFwlUJ9)" vector-effect="non-scaling-stroke" stroke-width="2" stroke="rgb(90,87,115)" stroke-linejoin="miter" stroke-linecap="butt" stroke-miterlimit="10"/></g><g opacity="0.2"><mask id="_mask_RcODc1BMbIUKQdRXgQyAt11oKlOXbYhG" x="-200%" y="-200%" width="400%" height="400%"><rect x="-200%" y="-200%" width="400%" height="400%" style="fill:white;"/><line x1="383.76" y1="432.82" x2="382.37" y2="487.47" fill="black" stroke="none"/></mask><line x1="383.76" y1="432.82" x2="382.37" y2="487.47" mask="url(#_mask_RcODc1BMbIUKQdRXgQyAt11oKlOXbYhG)" vector-effect="non-scaling-stroke" stroke-width="2" stroke-dasharray="12,12" stroke="rgb(90,87,115)" stroke-linejoin="miter" stroke-linecap="butt" stroke-miterlimit="10"/></g><g opacity="0.2"><mask id="_mask_oR87YGx2gX3SxM87PYaVD4YVxNjrE0zb" x="-200%" y="-200%" width="400%" height="400%"><rect x="-200%" y="-200%" width="400%" height="400%" style="fill:white;"/><line x1="332.65" y1="486.21" x2="882.97" y2="500.19" fill="black" stroke="none"/></mask><line x1="332.65" y1="486.21" x2="882.97" y2="500.19" mask="url(#_mask_oR87YGx2gX3SxM87PYaVD4YVxNjrE0zb)" vector-effect="non-scaling-stroke" stroke-width="2" stroke="rgb(90,87,115)" stroke-linejoin="miter" stroke-linecap="butt" stroke-miterlimit="10"/></g><g opacity="0.2"><mask id="_mask_bKUQr4qShkktGUsH1CX5fGcIFs4YmChc" x="-200%" y="-200%" width="400%" height="400%"><rect x="-200%" y="-200%" width="400%" height="400%" style="fill:white;"/><line x1="444.61" y1="489.05" x2="446.68" y2="407.58" fill="black" stroke="none"/></mask><line x1="444.61" y1="489.05" x2="446.68" y2="407.58" mask="url(#_mask_bKUQr4qShkktGUsH1CX5fGcIFs4YmChc)" vector-effect="non-scaling-stroke" stroke-width="2" stroke-dasharray="12,12" stroke="rgb(90,87,115)" stroke-linejoin="miter" stroke-linecap="butt" stroke-miterlimit="10"/></g><g opacity="0.2"><path d=" M 808.66 401.14 C 798.85 401.99 789.27 396.49 783.4 390.71 C 777.32 384.71 772.91 377.33 768.65 370.15 C 767.3 367.88 765.9 365.54 764.49 363.28 C 757.06 351.5 749.64 343.58 741.15 338.35 C 738.039 336.434 734.704 334.909 731.22 333.81 C 730.886 334.604 730.408 335.33 729.81 335.95 C 728.526 337.287 726.764 338.061 724.91 338.1 L 724.58 338.1 C 721.145 338.008 718.285 335.436 717.83 332.03 C 714.681 332.179 711.574 332.817 708.62 333.92 C 699.89 337.21 693.26 344.28 687.23 351.25 C 679.93 359.67 672.89 368.5 666.33 377.51 Q 664.33 380.24 662.33 383 C 655.21 392.94 647.85 403.21 638.33 411.24 C 625.55 422.08 610.18 426.75 597.21 423.74 C 581.65 420.13 570.52 406.38 562.57 394.8 C 561.57 393.3 560.57 391.8 559.49 390.27 C 552.07 379.27 544.4 367.9 533.08 361.27 C 518.17 352.52 497.58 354.03 484.08 364.84 C 477.5 370.11 472.56 377.27 467.77 384.19 C 466.13 386.57 464.43 389.03 462.68 391.39 C 453.68 403.48 444.61 410.04 434.83 411.46 C 430.952 411.89 427.038 411.89 423.16 411.46 C 420.58 411.28 417.91 411.08 415.3 411.15 C 402.055 411.715 390.075 419.18 383.73 430.82 L 382.35 488.38 L 814.66 499.38 L 817.08 404.15 C 815.581 404.965 813.807 405.103 812.2 404.531 C 810.593 403.958 809.306 402.729 808.66 401.15 L 808.66 401.14 Z " fill="rgb(240,40,40)"/></g><g opacity="0.2"><mask id="_mask_qb2HxhvZkRUJoMijoUNWblYUCsPdEiUk" x="-200%" y="-200%" width="400%" height="400%"><rect x="-200%" y="-200%" width="400%" height="400%" style="fill:white;"/><line x1="511.95" y1="355.58" x2="508.52" y2="490.68" fill="black" stroke="none"/></mask><line x1="511.95" y1="355.58" x2="508.52" y2="490.68" mask="url(#_mask_qb2HxhvZkRUJoMijoUNWblYUCsPdEiUk)" vector-effect="non-scaling-stroke" stroke-width="2" stroke-dasharray="12,12" stroke="rgb(90,87,115)" stroke-linejoin="miter" stroke-linecap="butt" stroke-miterlimit="10"/></g><g opacity="0.2"><mask id="_mask_A6vYuBVUb3g5bPtgMaC8afkukbeF8FjY" x="-200%" y="-200%" width="400%" height="400%"><rect x="-200%" y="-200%" width="400%" height="400%" style="fill:white;"/><line x1="572.24" y1="407.27" x2="570.08" y2="492.24" fill="black" stroke="none"/></mask><line x1="572.24" y1="407.27" x2="570.08" y2="492.24" mask="url(#_mask_A6vYuBVUb3g5bPtgMaC8afkukbeF8FjY)" vector-effect="non-scaling-stroke" stroke-width="2" stroke-dasharray="12,12" stroke="rgb(90,87,115)" stroke-linejoin="miter" stroke-linecap="butt" stroke-miterlimit="10"/></g><g opacity="0.2"><mask id="_mask_hzcsYE2P8U2XM1TQHWcLqmPRqYi493lt" x="-200%" y="-200%" width="400%" height="400%"><rect x="-200%" y="-200%" width="400%" height="400%" style="fill:white;"/><line x1="632.2" y1="417.24" x2="630.26" y2="493.77" fill="black" stroke="none"/></mask><line x1="632.2" y1="417.24" x2="630.26" y2="493.77" mask="url(#_mask_hzcsYE2P8U2XM1TQHWcLqmPRqYi493lt)" vector-effect="non-scaling-stroke" stroke-width="2" stroke-dasharray="12,12" stroke="rgb(90,87,115)" stroke-linejoin="miter" stroke-linecap="butt" stroke-miterlimit="10"/></g><g opacity="0.2"><mask id="_mask_1dgNyAdODwoObBMGiohR5h6XZS5igDvz" x="-200%" y="-200%" width="400%" height="400%"><rect x="-200%" y="-200%" width="400%" height="400%" style="fill:white;"/><line x1="690.39" y1="348.75" x2="686.67" y2="495.2" fill="black" stroke="none"/></mask><line x1="690.39" y1="348.75" x2="686.67" y2="495.2" mask="url(#_mask_1dgNyAdODwoObBMGiohR5h6XZS5igDvz)" vector-effect="non-scaling-stroke" stroke-width="2" stroke-dasharray="12,12" stroke="rgb(90,87,115)" stroke-linejoin="miter" stroke-linecap="butt" stroke-miterlimit="10"/></g><g opacity="0.2"><mask id="_mask_5nZGPu2noJyjm5ZW8JKtfhWn2MmLG3ZC" x="-200%" y="-200%" width="400%" height="400%"><rect x="-200%" y="-200%" width="400%" height="400%" style="fill:white;"/><line x1="749.61" y1="343.64" x2="745.72" y2="496.71" fill="black" stroke="none"/></mask><line x1="749.61" y1="343.64" x2="745.72" y2="496.71" mask="url(#_mask_5nZGPu2noJyjm5ZW8JKtfhWn2MmLG3ZC)" vector-effect="non-scaling-stroke" stroke-width="2" stroke-dasharray="12,12" stroke="rgb(90,87,115)" stroke-linejoin="miter" stroke-linecap="butt" stroke-miterlimit="10"/></g><g opacity="0.2"><mask id="_mask_DkvhAf6QJ2CEMRodpeEIo64etMJqtoWC" x="-200%" y="-200%" width="400%" height="400%"><rect x="-200%" y="-200%" width="400%" height="400%" style="fill:white;"/><line x1="815.2" y1="401.19" x2="812.72" y2="498.41" fill="black" stroke="none"/></mask><line x1="815.2" y1="401.19" x2="812.72" y2="498.41" mask="url(#_mask_DkvhAf6QJ2CEMRodpeEIo64etMJqtoWC)" vector-effect="non-scaling-stroke" stroke-width="2" stroke-dasharray="12,12" stroke="rgb(90,87,115)" stroke-linejoin="miter" stroke-linecap="butt" stroke-miterlimit="10"/></g><path d=" M 730.62 327.06 C 729.279 325.772 727.48 325.07 725.62 325.11 C 722.216 325.172 719.35 327.675 718.83 331.04 C 718.768 331.437 718.741 331.838 718.75 332.24 C 718.75 332.51 718.75 332.78 718.81 333.04 C 719.023 334.607 719.759 336.055 720.9 337.15 C 722.141 338.387 723.808 339.102 725.56 339.15 L 725.89 339.15 C 727.746 339.116 729.512 338.346 730.8 337.01 C 731.395 336.387 731.872 335.662 732.21 334.87 C 732.471 334.248 732.639 333.591 732.71 332.92 C 732.735 332.617 732.735 332.313 732.71 332.01 C 732.7 330.148 731.947 328.366 730.62 327.06 L 730.62 327.06 Z  M 730.27 334.26 C 730.046 334.747 729.738 335.19 729.36 335.57 C 728.057 336.916 726.111 337.42 724.318 336.876 C 722.525 336.333 721.187 334.833 720.85 332.99 C 720.795 332.73 720.765 332.466 720.76 332.2 C 720.749 331.797 720.79 331.393 720.88 331 C 721.386 328.755 723.359 327.145 725.66 327.1 L 725.89 327.1 C 728.558 327.169 730.702 329.321 730.76 331.99 C 730.76 332.09 730.76 332.2 730.76 332.3 C 730.742 332.981 730.575 333.65 730.27 334.26 L 730.27 334.26 Z " fill="rgb(240,40,40)"/><circle vector-effect="non-scaling-stroke" cx="815.26" cy="399.88" r="6" fill="rgb(240,40,40)"/><path d=" M 720.76 332.2 C 720.765 332.466 720.795 332.73 720.85 332.99 C 720.17 332.99 719.49 332.99 718.85 333.04 C 715.698 333.19 712.587 333.828 709.63 334.93 C 700.9 338.22 694.27 345.29 688.23 352.26 C 680.93 360.67 673.89 369.51 667.32 378.51 C 665.99 380.33 664.68 382.17 663.32 384.01 C 656.19 393.95 648.83 404.21 639.32 412.25 C 626.53 423.08 611.15 427.75 598.17 424.74 C 582.63 421.14 571.5 407.38 563.5 395.8 C 562.5 394.31 561.44 392.8 560.42 391.27 C 552.99 380.27 545.31 368.9 533.99 362.27 C 519.08 353.52 498.47 355.03 484.99 365.84 C 478.5 371.1 473.5 378.26 468.71 385.18 C 467.06 387.56 465.36 390.03 463.61 392.38 C 454.61 404.47 445.53 411.03 435.75 412.45 C 431.872 412.875 427.958 412.875 424.08 412.45 C 421.464 412.212 418.837 412.108 416.21 412.14 C 401.981 412.732 389.298 421.288 383.42 434.26 L 381.58 433.46 C 387.783 419.789 401.151 410.771 416.15 410.14 C 418.847 410.1 421.544 410.207 424.23 410.46 C 427.962 410.865 431.728 410.865 435.46 410.46 C 444.69 409.13 453.37 402.82 462 391.18 C 463.73 388.85 465.42 386.4 467.06 384.03 C 471.93 377.03 476.97 369.72 483.77 364.26 C 498.515 352.726 518.77 351.253 535.03 360.53 C 546.75 367.4 554.56 378.96 562.12 390.15 C 563.12 391.65 564.12 393.15 565.19 394.66 C 572.94 405.94 583.74 419.33 598.65 422.78 C 611.01 425.65 625.74 421.14 638.05 410.71 C 647.34 402.84 654.65 392.71 661.7 382.83 C 663.01 380.99 664.34 379.15 665.7 377.32 C 672.31 368.32 679.38 359.4 686.7 350.93 C 692.91 343.77 699.7 336.5 708.91 333.05 C 712.099 331.871 715.453 331.197 718.85 331.05 C 719.52 331.05 720.21 330.99 720.85 331.05 C 720.774 331.428 720.744 331.814 720.76 332.2 Z " fill="rgb(240,40,40)"/><path d=" M 815.61 400.82 C 803.88 405.2 791.48 398.66 784.42 391.72 C 778.34 385.72 773.93 378.33 769.67 371.15 C 768.32 368.89 766.92 366.54 765.5 364.29 C 758.07 352.5 750.65 344.58 742.15 339.35 C 739.038 337.439 735.703 335.918 732.22 334.82 C 731.58 334.61 730.93 334.43 730.22 334.26 C 730.524 333.654 730.691 332.988 730.71 332.31 C 731.37 332.48 732.02 332.67 732.71 332.87 C 736.385 334.022 739.902 335.628 743.18 337.65 C 751.96 343.04 759.58 351.16 767.18 363.22 C 768.61 365.5 770.01 367.85 771.38 370.14 C 775.58 377.2 779.92 384.51 785.81 390.29 C 792.44 396.81 804.05 403 814.9 398.95 L 815.61 400.82 Z " fill="rgb(240,40,40)"/><g style="mix-blend-mode:normal;" opacity="0.5"><path d="M 338.133 305.316 L 356.727 305.79 C 357.223 305.803 357.616 306.216 357.604 306.713 L 357.42 313.91 C 357.408 314.407 356.994 314.8 356.498 314.787 L 337.904 314.313 C 337.407 314.301 337.014 313.887 337.027 313.391 L 337.21 306.193 C 337.223 305.696 337.636 305.304 338.133 305.316 Z" style="stroke:none;fill:#F02828;stroke-miterlimit:10;"/></g><path d="M 337.028 348.294 L 355.622 348.768 C 356.119 348.781 356.512 349.194 356.499 349.691 L 356.316 356.888 C 356.303 357.385 355.889 357.778 355.393 357.765 L 336.799 357.291 C 336.302 357.279 335.909 356.865 335.922 356.369 L 336.106 349.171 C 336.118 348.674 336.532 348.282 337.028 348.294 Z" style="stroke:none;fill:#F02828;stroke-miterlimit:10;"/><g style="mix-blend-mode:normal;" opacity="0.5"><path d="M 335.933 391.293 L 354.527 391.766 C 355.024 391.779 355.417 392.193 355.404 392.689 L 355.221 399.887 C 355.208 400.383 354.794 400.776 354.298 400.764 L 335.704 400.29 C 335.207 400.277 334.815 399.864 334.827 399.367 L 335.011 392.169 C 335.023 391.673 335.437 391.28 335.933 391.293 Z" style="stroke:none;fill:#F02828;stroke-miterlimit:10;"/></g><g style="mix-blend-mode:normal;" opacity="0.5"><path d="M 334.839 434.271 L 353.432 434.745 C 353.929 434.757 354.322 435.171 354.309 435.667 L 354.126 442.865 C 354.113 443.362 353.7 443.754 353.203 443.742 L 334.609 443.268 C 334.113 443.255 333.72 442.842 333.732 442.345 L 333.916 435.148 C 333.929 434.651 334.342 434.258 334.839 434.271 Z" style="stroke:none;fill:#F02828;stroke-miterlimit:10;"/></g><g style="mix-blend-mode:normal;" opacity="0.5"><path d="M 333.744 477.259 L 352.337 477.733 C 352.834 477.746 353.227 478.159 353.214 478.656 L 353.031 485.853 C 353.018 486.35 352.605 486.743 352.108 486.73 L 333.514 486.256 C 333.018 486.244 332.625 485.83 332.637 485.334 L 332.821 478.136 C 332.834 477.639 333.247 477.246 333.744 477.259 Z" style="stroke:none;fill:#F02828;stroke-miterlimit:10;"/></g><g style="mix-blend-mode:normal;" opacity="0.5"><path d="M 371.578 496.227 L 390.172 496.701 C 390.668 496.713 391.061 497.127 391.049 497.623 L 390.865 504.821 C 390.853 505.318 390.439 505.71 389.943 505.698 L 371.349 505.224 C 370.852 505.211 370.459 504.798 370.472 504.301 L 370.655 497.104 C 370.668 496.607 371.081 496.214 371.578 496.227 Z" style="stroke:none;fill:#F02828;stroke-miterlimit:10;"/></g><g style="mix-blend-mode:normal;" opacity="0.5"><path d="M 435.056 497.844 L 453.65 498.318 C 454.147 498.33 454.54 498.744 454.527 499.24 L 454.344 506.438 C 454.331 506.934 453.917 507.327 453.421 507.315 L 434.827 506.841 C 434.33 506.828 433.938 506.415 433.95 505.918 L 434.134 498.72 C 434.146 498.224 434.56 497.831 435.056 497.844 Z" style="stroke:none;fill:#F02828;stroke-miterlimit:10;"/></g><path d="M 496.701 502.161 L 515.301 502.719 C 515.798 502.734 516.189 503.15 516.174 503.646 L 515.958 510.846 C 515.943 511.343 515.528 511.734 515.031 511.719 L 496.431 511.161 C 495.935 511.146 495.543 510.731 495.558 510.234 L 495.774 503.034 C 495.789 502.538 496.205 502.146 496.701 502.161 Z" style="stroke:none;fill:#F02828;stroke-miterlimit:10;"/><g style="mix-blend-mode:normal;" opacity="0.5"><path d="M 560.524 501.04 L 579.118 501.513 C 579.615 501.526 580.008 501.94 579.995 502.436 L 579.812 509.634 C 579.799 510.13 579.385 510.523 578.889 510.511 L 560.295 510.037 C 559.798 510.024 559.406 509.611 559.418 509.114 L 559.602 501.916 C 559.614 501.42 560.028 501.027 560.524 501.04 Z" style="stroke:none;fill:#F02828;stroke-miterlimit:10;"/></g><g style="mix-blend-mode:normal;" opacity="0.5"><path d="M 620.696 502.582 L 639.29 503.056 C 639.786 503.069 640.179 503.482 640.166 503.979 L 639.983 511.176 C 639.97 511.673 639.557 512.066 639.06 512.053 L 620.466 511.579 C 619.97 511.567 619.577 511.153 619.59 510.657 L 619.773 503.459 C 619.786 502.962 620.199 502.569 620.696 502.582 Z" style="stroke:none;fill:#F02828;stroke-miterlimit:10;"/></g><path d="M 677.101 504.009 L 695.695 504.483 C 696.192 504.495 696.584 504.909 696.572 505.405 L 696.388 512.603 C 696.376 513.1 695.962 513.493 695.466 513.48 L 676.872 513.006 C 676.375 512.993 675.982 512.58 675.995 512.083 L 676.178 504.886 C 676.191 504.389 676.604 503.996 677.101 504.009 Z" style="stroke:none;fill:#F02828;stroke-miterlimit:10;"/><path d="M 736.573 505.524 L 755.167 505.998 C 755.664 506.01 756.057 506.424 756.044 506.92 L 755.861 514.118 C 755.848 514.614 755.434 515.007 754.938 514.995 L 736.344 514.521 C 735.847 514.508 735.454 514.095 735.467 513.598 L 735.651 506.4 C 735.663 505.904 736.077 505.511 736.573 505.524 Z" style="stroke:none;fill:#F02828;stroke-miterlimit:10;"/><path d="M 801.469 511.312 L 819.089 511.841 C 819.856 511.864 820.46 512.506 820.437 513.273 L 820.251 519.493 C 820.228 520.26 819.586 520.864 818.819 520.841 L 801.199 520.312 C 800.432 520.289 799.828 519.648 799.851 518.881 L 800.037 512.661 C 800.06 511.894 800.702 511.289 801.469 511.312 Z" style="stroke:none;fill:#F02828;stroke-miterlimit:10;"/><path d=" M 980.87 605.49 C 985.593 605.49 989.659 608.826 990.58 613.458 C 991.502 618.09 989.023 622.728 984.66 624.536 C 980.296 626.344 975.264 624.818 972.639 620.891 C 970.015 616.964 970.53 611.73 973.87 608.39 C 975.723 606.529 978.243 605.485 980.87 605.49 Z  M 980.87 603.95 C 976.237 603.95 972.061 606.742 970.29 611.023 C 968.519 615.304 969.502 620.23 972.781 623.503 C 976.06 626.777 980.988 627.751 985.266 625.973 C 989.544 624.194 992.328 620.013 992.32 615.38 C 992.317 612.346 991.11 609.437 988.962 607.294 C 986.815 605.15 983.904 603.947 980.87 603.95 L 980.87 603.95 Z " fill="rgb(240,40,40)"/><path d=" M 977.8 618.76 L 978.4 617.96 C 978.985 618.534 979.77 618.86 980.59 618.87 C 981.59 618.87 982.38 618.36 982.38 617.55 C 982.38 616.74 981.65 616.09 979.63 616.09 L 979.63 615.17 C 981.43 615.17 982.11 614.57 982.11 613.79 C 982.11 613.01 981.5 612.64 980.61 612.64 C 979.908 612.662 979.237 612.935 978.72 613.41 L 978.08 612.64 C 978.794 612.01 979.708 611.656 980.66 611.64 C 982.21 611.64 983.36 612.39 983.36 613.7 C 983.36 614.62 982.69 615.23 981.71 615.56 L 981.71 615.61 C 982.752 615.72 983.563 616.565 983.63 617.61 C 983.63 619.03 982.29 619.89 980.69 619.89 C 979.611 619.933 978.564 619.523 977.8 618.76 Z " fill="rgb(240,40,40)"/><path d=" M 1028.16 606.16 C 1032.883 606.16 1036.949 609.496 1037.87 614.128 C 1038.792 618.76 1036.313 623.398 1031.95 625.206 C 1027.586 627.014 1022.554 625.488 1019.929 621.561 C 1017.305 617.634 1017.82 612.4 1021.16 609.06 C 1023.013 607.198 1025.533 606.154 1028.16 606.16 M 1028.16 604.62 C 1021.836 604.62 1016.71 609.746 1016.71 616.07 C 1016.71 622.394 1021.836 627.52 1028.16 627.52 C 1034.484 627.52 1039.61 622.394 1039.61 616.07 C 1039.613 613.032 1038.407 610.119 1036.259 607.971 C 1034.111 605.823 1031.198 604.617 1028.16 604.62 L 1028.16 604.62 Z " fill="rgb(90,87,115)"/><path d=" M 1028.31 614.87 C 1028.31 614.38 1028.31 613.76 1028.38 613.27 L 1028.31 613.27 C 1028.03 613.7 1027.71 614.13 1027.43 614.56 L 1025.43 617.17 L 1030.84 617.17 L 1030.84 618.22 L 1024.03 618.22 L 1024.03 617.38 L 1028.09 612.04 L 1029.58 612.04 L 1029.58 620.54 L 1028.34 620.54 L 1028.31 614.87 Z " fill="rgb(90,87,115)"/><path d=" M 1002.07 609.53 C 1002.478 609.13 1003.132 609.13 1003.54 609.53 L 1008.7 614.71 C 1008.896 614.898 1009.006 615.158 1009.006 615.43 C 1009.006 615.702 1008.896 615.962 1008.7 616.15 L 1003.62 621.25 C 1003.43 621.459 1003.162 621.577 1002.88 621.577 C 1002.598 621.577 1002.33 621.459 1002.14 621.25 C 1001.935 621.061 1001.818 620.794 1001.818 620.515 C 1001.818 620.236 1001.935 619.969 1002.14 619.78 L 1006.5 615.38 L 1002.07 611 C 1001.861 610.81 1001.743 610.542 1001.743 610.26 C 1001.743 609.978 1001.861 609.71 1002.07 609.52 L 1002.07 609.53 Z " fill="rgb(90,87,115)"/><path d=" M 993.27 615.38 C 993.262 619.934 996 624.043 1000.206 625.79 C 1004.411 627.536 1009.255 626.575 1012.475 623.355 C 1015.695 620.135 1016.656 615.291 1014.91 611.086 C 1013.163 606.88 1009.054 604.142 1004.5 604.15 C 998.3 604.156 993.276 609.18 993.27 615.38 Z  M 995 615.38 C 994.992 610.832 998.199 606.911 1002.658 606.018 C 1007.118 605.125 1011.588 607.508 1013.332 611.708 C 1015.076 615.909 1013.608 620.757 1009.827 623.285 C 1006.046 625.813 1001.006 625.317 997.79 622.1 C 995.998 620.324 994.992 617.903 995 615.38 L 995 615.38 Z " fill="rgb(90,87,115)"/><g style="mix-blend-mode:normal;" opacity="0.2"><path d="M 169.95 189.05 L 389.47 189.05 C 391.6 189.05 393.33 190.78 393.33 192.91 L 393.33 209.04 C 393.33 211.17 391.6 212.9 389.47 212.9 L 169.95 212.9 C 167.82 212.9 166.09 211.17 166.09 209.04 L 166.09 192.91 C 166.09 190.78 167.82 189.05 169.95 189.05 Z" style="stroke:none;fill:#5A5773;stroke-miterlimit:10;"/></g><linearGradient id="_lgradient_3" x1="0" y1="0.5" x2="0.038387809087520056" y2="1.499262916410621" gradientTransform="matrix(269.911,0,0,526.378,437.353,245.278)" gradientUnits="userSpaceOnUse"><stop offset="100%" stop-opacity="0.1" style="stop-color:rgb(128,128,128)"/><stop offset="100%" stop-opacity="0.10006961357655658" style="stop-color:rgb(128,128,128)"/><stop offset="100%" stop-opacity="0.12024434365371356" style="stop-color:rgb(128,128,128)"/></linearGradient><path d=" M 707.19 757.14 C 705.53 751.14 704.45 745.84 704.45 745.84 C 704.45 745.84 704.52 739.24 701.37 734.39 L 701.31 732.74 L 701.31 732.74 L 700.84 720.54 C 701.596 718.293 702.543 716.115 703.67 714.03 C 705.73 710.11 702.99 696.15 702.99 696.15 C 702.99 696.15 694.08 676.66 695.58 664.02 C 697.08 651.38 676.72 608.87 676.72 608.87 C 676.67 604.698 677.1 600.534 678 596.46 C 678.158 595.603 678.205 594.729 678.14 593.86 C 678.14 593.75 678.14 593.66 678.14 593.54 C 678.14 593.54 678.14 593.61 678.14 593.64 C 677.55 585.37 670.4 570.09 670.4 570.09 L 670.14 540.46 C 670.14 540.46 673.65 522.84 665.92 499.68 C 663.23 491.6 661.45 485.12 660.29 480.1 C 660.16 479.54 660.03 478.99 659.92 478.47 C 673.92 475.78 684.53 473.59 684.53 473.59 C 684.53 473.59 675.08 439.84 669.35 434.09 C 663.62 428.34 658.5 409.78 658.5 409.78 C 658.5 409.78 654.71 385.83 659.06 378.62 C 663.41 371.41 663.61 359.26 663.61 359.26 C 663.61 359.26 673.87 351.18 675.06 347.73 C 676.25 344.28 678.15 336.52 678 332.47 C 677.85 328.42 676.38 324.86 676.74 322.71 C 677.1 320.56 673.27 312.61 674.88 308.71 C 675.288 307.514 675.477 306.254 675.44 304.99 C 675.44 304.99 675.44 304.91 675.44 304.88 C 675.44 304.88 675.44 304.88 675.44 304.83 C 675.326 301.479 674.887 298.147 674.13 294.88 C 670.984 292.416 667.35 290.647 663.47 289.69 L 663.2 288.79 L 662.5 286.38 C 662.14 286.16 661.79 285.97 661.44 285.8 L 661.38 284.93 L 661.15 281.48 L 662.5 273.68 C 665.22 260.03 647.11 258.68 647.11 258.68 C 645.939 256.646 644.054 255.12 641.82 254.4 C 638.14 253.26 642 274.76 643.75 276.07 C 645.06 277.07 649.27 283.69 651.3 286.95 L 651.3 286.95 L 651.62 287.48 C 651.338 287.763 651.074 288.064 650.83 288.38 L 651.7 293.05 L 651.83 293.76 C 650.697 295.288 649.791 296.972 649.14 298.76 C 649.14 298.76 652.58 302.26 652.08 306.33 C 652.08 306.33 653.44 315.38 653.53 315.65 C 653.33 315.43 650.91 313.01 648.62 313.71 C 646.33 314.41 639.92 316.6 639.92 316.6 C 639.92 316.6 635.11 317.6 635.59 318.69 C 636.07 319.78 632.51 324.57 632.51 324.57 L 619.03 312.74 C 618.89 312.38 618.74 312.02 618.61 311.64 C 618.002 309.901 617.553 308.11 617.27 306.29 C 618.674 305.892 620.047 305.394 621.38 304.8 C 622.729 304.28 623.933 303.443 624.89 302.36 C 626.14 300.75 626.31 298.63 626.77 296.67 C 627.65 292.85 629.77 289.39 631.18 285.73 C 633.604 279.582 634.242 272.875 633.02 266.38 C 632.735 264.371 631.977 262.459 630.81 260.8 C 628.57 257.96 624.68 256.92 621.81 254.7 C 618.94 252.48 616.97 248.99 613.64 247.36 C 610.64 245.9 607.04 246.22 603.74 246.9 C 597.253 248.205 591.066 250.712 585.5 254.29 C 583.65 255.48 581.62 256.86 579.42 256.55 C 577.54 256.28 576.11 254.84 574.85 253.46 C 574.85 253.4 574.85 253.34 574.9 253.28 L 574.75 253.11 C 573.492 256.22 572.932 259.569 573.11 262.92 Q 573.11 263.7 573.23 264.48 C 573.23 264.66 573.23 264.84 573.28 265.02 C 573.29 265.17 573.29 265.32 573.28 265.47 L 573.28 265.47 C 573.286 265.702 573.263 265.934 573.21 266.16 C 572.96 266.839 572.568 267.456 572.06 267.97 C 571.685 268.434 571.35 268.929 571.06 269.45 C 571.06 269.27 571.16 269.09 571.22 268.92 C 570.435 270.161 570.022 271.601 570.03 273.07 C 569.999 274.139 570.391 275.177 571.12 275.96 C 571.796 276.573 572.529 277.119 573.31 277.59 C 573.106 279.03 573.032 280.486 573.09 281.94 C 573.462 290.751 578.426 298.721 586.17 302.94 L 586.65 304.04 C 588.48 308.35 589.93 313.4 589.56 318.13 C 589.56 318.48 589.49 318.82 589.44 319.13 C 589.28 319.31 589.13 319.5 588.99 319.69 L 588.99 319.69 C 588.99 319.69 567.52 320.69 562.29 316.34 C 562.29 316.34 549.96 328.01 549.96 328.01 C 549.96 328.01 542.32 329.8 540.73 328.37 C 540.73 328.37 530.16 328.56 530.16 328.56 C 526.344 325.425 521.478 323.859 516.55 324.18 C 513.46 322.01 510.076 320.293 506.5 319.08 L 506.5 319.08 L 506.26 319 L 506.26 319 C 504.689 318.495 503.025 318.348 501.39 318.57 C 501.39 318.57 490.5 310.25 487.24 305.68 C 487.24 305.68 468.64 284.3 468.57 284.23 L 468.5 283.38 L 468.24 280.86 C 467.807 280.941 467.37 280.995 466.93 281.02 Q 466.8 280.65 466.6 280.15 C 465.661 277.729 464.527 275.388 463.21 273.15 C 463.21 273.15 463.09 269.95 463.99 269.15 C 463.99 269.15 463.12 256.65 463.12 256.65 C 463.12 256.65 452.75 234.77 444.86 251.71 C 444.86 251.71 429.16 263.08 443.17 275.07 C 443.17 275.07 448.67 277.47 449.51 279.51 C 450.06 280.84 452.04 284.51 453.37 286.97 L 453.96 288.07 L 453.81 288.2 L 454.09 290.28 L 454.2 291.09 C 451.71 292.64 450.04 294.14 450.5 295.2 C 451.321 297.016 451.913 298.927 452.26 300.89 C 452.26 300.89 471.86 323.6 474.67 333.51 C 474.67 333.51 525.97 361.39 542.55 362.89 L 540.27 377.89 C 540.27 377.89 539.73 386.89 540.07 390.05 C 540.07 390.05 538.77 407.8 538.77 407.8 C 538.77 407.8 536.77 429.21 534.43 432.28 C 534.43 432.28 533.05 448.11 533.05 448.11 C 532.708 454.25 531.838 460.349 530.45 466.34 C 528.34 474.52 530.45 484.46 530.45 484.46 C 530.45 484.46 522.83 503.95 542.34 490.19 C 542.34 490.19 552.15 489.19 563.45 488.38 C 563.45 488.75 563.45 489.12 563.45 489.51 C 563.45 490.97 563.51 492.51 563.56 494.21 C 563.83 505.21 564.35 520.32 565.28 531.74 C 566.94 551.93 574.64 591.74 574.64 591.74 L 575.41 611.85 C 575.09 613.756 574.972 615.69 575.06 617.62 C 575.19 624.713 577.337 631.622 581.25 637.54 L 583.31 650.9 C 583.31 650.9 587.31 659.59 587.53 664.9 C 587.535 665.332 587.501 665.764 587.43 666.19 C 587.32 666.871 587.286 667.562 587.33 668.25 C 587.33 674.35 591.59 688.78 591.59 688.78 C 591.59 688.78 592.38 703.46 594.59 704.23 C 596.5 704.89 592.4 712.79 591.18 715.07 C 591.18 714.93 591.11 714.79 591.08 714.65 L 590.83 715.1 C 590.418 716.302 590.231 717.57 590.28 718.84 C 590.108 720.898 591.135 722.871 592.92 723.91 C 597.2 726.31 599.53 728.35 596.01 729.34 C 594.714 729.607 593.432 729.941 592.17 730.34 L 591.97 729.86 C 591.031 730.322 590.512 731.351 590.7 732.38 C 590.64 733.45 591.06 735.01 592.2 737.31 C 596.02 745.05 598.58 747.94 598.58 747.94 L 600.26 747.68 C 600.034 748.335 599.729 748.96 599.35 749.54 C 598.746 750.488 597.923 751.277 596.95 751.84 C 596.043 752.431 595.02 752.823 593.95 752.99 C 591.537 753.156 589.309 754.346 587.83 756.26 C 585.75 759.18 584.52 763.1 588.99 766.33 L 604.93 771.15 C 604.93 771.15 632.12 773.63 630.45 767.61 C 630.45 767.61 627.71 756.31 627.71 756.31 C 627.673 752.597 626.78 748.942 625.1 745.63 C 624.806 745.089 624.472 744.571 624.1 744.08 L 625.05 743.93 C 625.05 743.93 626.52 730.44 629.05 727.79 C 629.63 727.17 629.75 726.72 629.6 726.37 C 629.84 725.63 629.14 725.23 628.24 725.02 C 628.18 725.2 628.12 725.37 628.07 725.56 C 627.222 725.413 626.361 725.352 625.5 725.38 C 625.5 725.38 624.35 718.38 627.11 715.72 C 627.557 715.114 627.728 714.348 627.58 713.61 C 627.568 712.647 627.433 711.689 627.18 710.76 C 627.18 710.76 627.12 710.87 627.08 710.93 C 625.39 704.61 620.13 694.66 620.13 694.66 C 620.13 694.66 619.67 688.28 621.33 685.66 C 622.99 683.04 619.77 650.96 619.77 650.96 C 619.77 650.96 619.83 635.39 617.57 628.23 C 615.31 621.07 619.34 612.38 619.34 612.38 C 619.34 612.38 619.34 612.21 619.27 611.92 C 619.291 611.886 619.308 611.849 619.32 611.81 C 619.32 611.81 619.19 610.81 618.97 609.37 C 618.97 609.37 618.97 609.47 618.97 609.52 C 618.37 605.42 617.24 598 616.49 594.58 C 615.42 589.72 615.62 566.25 615.62 566.25 L 619.2 556.09 L 626.9 573.09 L 635.26 595.8 C 635.26 595.8 639.16 600.51 639.43 605.43 C 639.43 605.67 639.43 605.91 639.43 606.15 C 639.43 606.68 639.43 607.15 639.43 607.69 C 639.412 610.601 640.323 613.442 642.03 615.8 C 642.03 615.8 644.43 626.58 647.61 629.23 C 647.61 629.23 651.01 637.23 651.01 637.23 C 651.01 637.23 655.35 652.84 657.22 655.54 C 658.79 657.82 659.12 664.23 659.22 666.19 L 659.22 666.19 C 659.22 666.55 659.22 666.76 659.22 666.76 C 659.22 666.76 659.96 672.37 660.12 677.11 C 660.12 677.69 660.12 678.26 660.12 678.79 C 660.12 678.79 660.12 678.71 660.12 678.67 C 660.166 679.961 660.062 681.253 659.81 682.52 C 659.81 682.58 659.81 682.66 659.75 682.74 C 659.75 682.47 659.75 682.2 659.75 681.94 C 659.097 685.183 658.845 688.495 659 691.8 C 659.12 697.47 660.24 704.14 663.82 707.95 C 670.02 714.54 673.73 713.54 673.73 713.54 C 673.73 713.54 671.2 722.17 667.73 724.01 C 667.6 724.078 667.479 724.162 667.37 724.26 C 667.37 724.1 667.29 723.93 667.26 723.77 C 666.519 724.664 666.188 725.83 666.35 726.98 C 666.24 730.74 668.84 736.73 671.19 739.44 C 672.042 740.217 673.073 740.774 674.19 741.06 C 674.018 741.191 673.838 741.312 673.65 741.42 C 673.267 741.652 672.869 741.859 672.46 742.04 C 671.9 742.315 671.299 742.498 670.68 742.58 C 668.268 742.742 666.043 743.934 664.57 745.85 C 662.49 748.76 661.25 752.68 665.72 755.91 L 681.67 760.73 C 681.67 760.73 708.86 763.16 707.19 757.14 Z " fill="url(#_lgradient_3)"/><path d=" M 604.23 771.18 L 588.8 766.38 C 584.47 763.14 585.65 759.22 587.67 756.31 C 589.07 754.411 591.228 753.217 593.58 753.04 C 594.608 752.874 595.588 752.485 596.45 751.9 C 597.401 751.333 598.201 750.544 598.78 749.6 C 599.821 747.793 600.344 745.734 600.29 743.65 C 600.29 743.65 616.82 738.11 621.58 742.83 C 622.431 743.683 623.152 744.657 623.72 745.72 C 625.354 749.039 626.225 752.681 626.27 756.38 C 626.27 756.38 627.32 761.66 628.94 767.68 C 630.56 773.7 604.23 771.18 604.23 771.18 Z " fill="rgb(45,41,61)"/><path d=" M 678.5 760.81 L 663.06 755.97 C 658.73 752.73 659.92 748.81 661.93 745.9 C 663.327 744 665.488 742.808 667.84 742.64 C 668.439 742.557 669.021 742.375 669.56 742.1 C 669.96 741.924 670.348 741.72 670.72 741.49 C 674.89 738.98 674.55 733.24 674.55 733.24 C 674.55 733.24 691.08 727.7 695.85 732.42 C 696.486 733.059 697.05 733.767 697.53 734.53 C 700.59 739.38 700.53 746 700.53 746 C 700.53 746 701.59 751.29 703.2 757.3 C 704.81 763.31 678.5 760.81 678.5 760.81 Z " fill="rgb(45,41,61)"/><g opacity="0.1"><path d=" M 621.58 742.79 C 622.431 743.643 623.152 744.617 623.72 745.68 L 623.72 745.68 L 598.78 749.55 C 599.821 747.743 600.344 745.684 600.29 743.6 C 600.29 743.6 616.82 738.07 621.58 742.79 Z " fill="rgb(0,0,0)"/></g><g opacity="0.1"><path d=" M 697.5 734.53 L 697.68 739.22 C 694.04 745.79 675.13 745.11 669.53 742.1 C 669.93 741.924 670.318 741.72 670.69 741.49 C 674.86 738.98 674.52 733.24 674.52 733.24 C 674.52 733.24 691.05 727.7 695.82 732.42 C 696.456 733.059 697.02 733.767 697.5 734.53 L 697.5 734.53 Z " fill="rgb(0,0,0)"/></g><path d=" M 699.7 714.2 C 698.608 716.286 697.695 718.46 696.97 720.7 L 697.62 737.52 C 693.62 744.71 671.39 743.22 668.26 739.52 C 665.13 735.82 661.56 725.92 664.9 724.08 C 668.24 722.24 670.68 713.63 670.68 713.63 C 670.68 713.63 667.09 714.63 661.08 708.03 C 655.07 701.43 656.19 686.25 657.08 682.59 C 657.97 678.93 656.46 666.83 656.46 666.83 C 656.46 666.83 656.35 658.31 654.54 655.61 C 652.73 652.91 648.54 637.29 648.54 637.29 C 648.54 637.29 648.34 631.96 645.25 629.29 C 642.16 626.62 639.83 615.85 639.83 615.85 C 637.982 613.203 637.106 609.999 637.35 606.78 C 637.78 601.43 633.3 595.84 633.3 595.84 L 625.18 573.13 L 617.7 556.13 L 614.25 566.29 C 614.25 566.29 614.09 589.75 615.13 594.61 C 615.13 594.61 617.95 612.42 617.95 612.42 C 617.95 612.42 614.01 621.1 616.21 628.26 C 616.21 628.26 618.36 651 618.36 651 C 618.36 651 621.52 683.08 619.91 685.7 C 619.91 685.7 618.77 694.7 618.77 694.7 C 618.77 694.7 628.22 713.1 625.55 715.76 C 625.55 715.76 624 725.41 624 725.41 C 624 725.41 630 725.18 627.5 727.84 C 627.5 727.84 623.65 743.98 623.65 743.98 L 598.02 747.98 C 598.02 747.98 595.54 745.09 591.83 737.34 C 591.83 737.34 592.2 730.29 595.59 729.34 C 595.59 729.34 596.74 726.34 592.59 723.91 C 592.59 723.91 590.59 715.67 590.59 715.67 C 590.59 715.67 596.36 705 594.2 704.23 C 594.2 704.23 591.26 688.78 591.26 688.78 C 591.26 688.78 586.33 671.48 587.26 666.78 C 587.26 666.78 583.26 650.94 583.26 650.94 L 581.26 637.58 C 573 624.61 575.5 612.38 575.5 612.38 L 574.7 591.72 C 574.7 591.72 567.2 551.92 565.57 531.72 C 564.57 518.78 564 501.1 563.76 490.06 C 563.62 483.86 563.57 479.76 563.57 479.76 L 655.19 466.64 C 655.19 466.64 655.26 470.89 657.38 480.24 C 658.51 485.24 660.24 491.74 662.86 499.83 C 670.36 522.99 666.99 540.61 666.99 540.61 L 667.28 570.24 C 667.28 570.24 676.13 589.73 674.69 596.61 C 673.84 600.687 673.441 604.846 673.5 609.01 C 673.5 609.01 693.26 651.54 691.83 664.18 C 691.83 664.18 699.03 696.31 699.03 696.31 C 699.03 696.31 701.68 710.28 699.7 714.2 Z " fill="rgb(49,49,49)"/><g opacity="0.05"><line x1="642.84" y1="605.29" x2="670.7" y2="600.48"/></g><g opacity="0.1"><path d=" M 665.6 573.28 C 665.6 573.28 666.94 583.14 661.01 587.1 C 661.01 587.1 671.81 584.98 665.6 573.28 Z " fill="rgb(0,0,0)"/></g><g opacity="0.1"><path d=" M 662.67 541.83 C 662.67 541.83 640 562 631.43 560.73 C 622.86 559.46 662.67 541.83 662.67 541.83 Z " fill="rgb(0,0,0)"/></g><g opacity="0.1"><path d=" M 608.5 615.67 C 608.5 615.67 590.86 620.38 590.6 627.55 C 590.6 627.55 608.5 615.67 608.5 615.67 Z " fill="rgb(0,0,0)"/></g><g opacity="0.05"><path d=" M 615.81 704.31 C 615.81 704.31 590.87 709.96 598.12 712.88 C 598.12 712.88 617.19 717.88 617.19 717.88 C 617.19 717.88 625.29 718.02 615.81 704.31 Z " fill="rgb(0,0,0)"/></g><g style="opacity:0.05;"><g opacity="0.05"><path d=" M 593.24 718.14 C 591.936 717.383 591.043 716.079 590.81 714.59 L 590.57 715.05 C 590.57 715.05 588.44 720.89 592.57 723.29 C 593.05 723.56 593.49 723.83 593.92 724.1 C 594.65 723.93 595.46 723.8 596.22 723.57 C 599.64 722.59 597.39 720.54 593.24 718.14 Z " fill="rgb(0,0,0)"/></g><g opacity="0.05"><path d=" M 625.5 715.2 C 626.17 714.53 626.08 712.9 625.58 710.81 C 624.51 712.51 624.33 715.08 624.39 717.03 C 624.62 716.346 624.999 715.721 625.5 715.2 L 625.5 715.2 Z " fill="rgb(0,0,0)"/></g><g opacity="0.05"><path d=" M 617.6 609.38 C 616.77 611.933 616.299 614.588 616.2 617.27 C 616.611 615.4 617.193 613.573 617.94 611.81 C 617.94 611.81 617.81 610.9 617.6 609.38 Z " fill="rgb(0,0,0)"/></g><g opacity="0.05"><path d=" M 674.69 596.02 C 674.832 595.249 674.882 594.463 674.84 593.68 C 674.58 595.29 674.42 596.77 674.31 598.07 C 674.42 597.38 674.55 596.72 674.69 596.02 Z " fill="rgb(0,0,0)"/></g><g opacity="0.05"><path d=" M 619.91 685.13 C 620.23 684.6 620.36 682.83 620.36 680.38 C 619.649 682.298 619.31 684.335 619.36 686.38 C 619.493 685.943 619.677 685.523 619.91 685.13 Z " fill="rgb(0,0,0)"/></g><g opacity="0.05"><path d=" M 626.73 725.08 C 625.16 729.94 624.3 738.27 624.3 738.27 L 598.67 742.27 C 598.67 742.27 596.19 739.38 592.5 731.61 C 592.18 730.93 591.91 730.32 591.7 729.76 C 590.19 730.53 589.64 732.15 591.85 736.76 C 595.56 744.51 598.03 747.4 598.03 747.4 L 623.66 743.4 C 623.66 743.4 625.06 729.91 627.52 727.25 C 628.71 725.97 627.88 725.38 626.73 725.08 Z " fill="rgb(0,0,0)"/></g><g opacity="0.05"><path d=" M 591.24 688.15 C 591.24 688.15 592.02 702.84 594.18 703.61 L 594.18 703.61 C 595.18 701.13 595.79 698.8 594.82 698.46 C 592.66 697.69 591.88 683 591.88 683 C 591.88 683 586.95 665.71 587.88 661 C 588.81 656.29 583.88 645.16 583.88 645.16 L 581.88 631.81 C 573.71 618.9 576.22 606.65 576.22 606.65 L 575.42 586 C 575.42 586 567.92 546.2 566.29 526 C 565.29 513.07 564.72 495.38 564.48 484.34 C 564.48 482.34 564.4 480.58 564.37 479.09 L 563.64 479.19 C 563.64 479.19 563.64 483.29 563.82 489.49 C 564.07 500.49 564.59 518.21 565.64 531.14 C 567.27 551.34 574.77 591.14 574.77 591.14 L 575.5 611.78 C 575.5 611.78 572.99 624.03 581.16 636.94 L 583.16 650.3 C 583.16 650.3 588.07 661.41 587.16 666.13 C 586.25 670.85 591.24 688.15 591.24 688.15 Z " fill="rgb(0,0,0)"/></g><g opacity="0.05"><path d=" M 668.91 733.78 C 666.696 730.839 665.169 727.439 664.44 723.83 C 661.9 726.3 665.28 735.39 668.25 738.93 C 671.38 742.65 693.61 744.14 697.6 736.93 L 697.44 732.87 C 691.91 738.82 671.86 737.3 668.91 733.78 Z " fill="rgb(0,0,0)"/></g><g opacity="0.05"><path d=" M 700.34 708.48 C 699.248 710.566 698.335 712.74 697.61 714.98 L 697.72 717.98 C 698.16 716.87 698.8 715.39 699.72 713.63 C 700.33 711.93 700.578 710.121 700.45 708.32 C 700.39 708.38 700.37 708.43 700.34 708.48 Z " fill="rgb(0,0,0)"/></g><g opacity="0.05"><path d=" M 669.42 713.03 C 670.164 711.36 670.799 709.643 671.32 707.89 C 671.32 707.89 667.73 708.89 661.72 702.29 C 657.35 697.49 656.72 688.14 657.11 682 C 656.18 685.66 655.06 700.84 661.11 707.43 C 665 711.74 667.89 712.81 669.42 713.03 Z " fill="rgb(0,0,0)"/></g><g opacity="0.05"><path d=" M 656.5 666.24 C 657.031 670.42 657.335 674.627 657.41 678.84 C 657.488 678.167 657.609 677.499 657.77 676.84 C 658.7 673.18 657.15 661.09 657.15 661.09 C 657.15 661.09 657.04 652.56 655.23 649.86 C 653.42 647.16 649.23 631.54 649.23 631.54 C 649.23 631.54 649.03 626.22 645.94 623.54 C 642.85 620.86 640.5 610.13 640.5 610.13 C 638.647 607.485 637.77 604.279 638.02 601.06 C 638.45 595.71 634.02 590.13 634.02 590.13 L 625.83 567.38 L 618.35 550.38 L 614.9 560.58 C 614.9 560.58 614.9 561.84 614.9 563.82 L 617.7 555.57 L 625.18 572.57 L 633.31 595.29 C 633.31 595.29 637.79 600.88 637.31 606.22 C 637.064 609.442 637.94 612.65 639.79 615.3 C 639.79 615.3 642.13 626.08 645.21 628.74 C 645.21 628.74 648.51 636.74 648.51 636.74 C 648.51 636.74 652.73 652.36 654.51 655.06 C 656.29 657.76 656.5 666.24 656.5 666.24 Z " fill="rgb(0,0,0)"/></g></g><path d=" M 659.3 273.81 L 658 281.65 L 658.23 285.1 L 658.39 287.65 L 649.55 288.91 L 648.48 287.11 L 648.48 287.11 C 646.48 283.85 642.43 277.22 641.16 276.22 C 639.46 274.91 635.7 253.41 639.27 254.55 C 641.447 255.3 643.271 256.828 644.39 258.84 C 644.39 258.84 661.92 260.17 659.3 273.81 Z " fill="rgb(255,205,211)"/><g opacity="0.1"><path d=" M 658.39 287.65 L 649.55 288.91 L 648.48 287.11 L 648.48 287.11 C 650.838 284.205 654.919 283.368 658.23 285.11 L 658.39 287.65 Z " fill="rgb(0,0,0)"/></g><path d=" M 660.8 291.78 L 649.19 294.94 L 648.87 293.21 L 648.03 288.54 C 648.03 288.54 652.43 282.18 659.31 286.54 L 659.99 288.91 L 660.8 291.78 Z " fill="rgb(220,230,242)"/><path d=" M 470.36 281.93 L 458.12 289.13 C 458.12 289.13 457.6 288.13 456.89 286.81 C 455.61 284.36 453.69 280.67 453.15 279.35 C 452.33 277.35 447.01 274.89 447.01 274.89 C 433.44 262.89 448.62 251.54 448.62 251.54 C 456.23 234.61 466.3 256.54 466.3 256.54 C 466.3 256.54 468.02 268.21 467.15 269.04 C 466.28 269.87 466.4 273.04 466.4 273.04 C 467.688 275.279 468.788 277.62 469.69 280.04 C 470.13 281.21 470.36 281.93 470.36 281.93 Z " fill="rgb(255,205,211)"/><g opacity="0.1"><path d=" M 470.36 281.93 L 458.12 289.13 C 458.12 289.13 457.6 288.13 456.89 286.81 C 458.6 285.27 464.66 279.95 466.73 280.1 C 467.728 280.195 468.732 280.195 469.73 280.1 C 470.13 281.21 470.36 281.93 470.36 281.93 Z " fill="rgb(0,0,0)"/></g><path d=" M 471.78 285.67 L 458 293.13 L 457.6 290.13 L 457.32 288.05 C 457.32 288.05 465.2 280.76 467.61 280.93 C 468.834 281.056 470.07 281.005 471.28 280.78 L 471.54 283.31 L 471.78 285.67 Z " fill="rgb(220,230,242)"/><path d=" M 627.22 326.76 C 627.22 326.76 566.22 336.03 577.52 331.87 C 585.39 328.97 588.37 323.78 588.81 318.13 C 589.17 313.4 587.81 308.35 585.99 304.04 C 584.393 300.229 582.413 296.59 580.08 293.18 C 580.08 293.18 625.93 265.61 617.5 289.38 C 616.187 292.977 615.435 296.754 615.27 300.58 C 615.126 304.378 615.678 308.171 616.9 311.77 C 618.889 317.624 622.462 322.812 627.22 326.76 Z " fill="rgb(255,205,211)"/><g opacity="0.1"><path d=" M 617.5 289.38 C 616.187 292.977 615.435 296.754 615.27 300.58 C 611 304.46 606.15 304.4 599.94 304.64 C 595.16 304.82 589.94 306.18 586.02 304.03 C 584.423 300.219 582.443 296.58 580.11 293.17 C 580.11 293.17 625.93 265.61 617.5 289.38 Z " fill="rgb(0,0,0)"/></g><circle vector-effect="non-scaling-stroke" cx="598.16" cy="280.96" r="25.360000000000014" fill="rgb(255,205,211)"/><g opacity="0.1"><path d=" M 627.22 326.76 C 627.22 326.76 566.22 336.03 577.52 331.87 C 585.39 328.97 588.37 323.78 588.81 318.13 C 591.74 314.71 597.81 312.13 601.66 310.67 C 605.209 309.327 609.086 309.114 612.76 310.06 C 614.207 310.43 615.591 311.009 616.87 311.78 C 618.869 317.634 622.452 322.819 627.22 326.76 Z " fill="rgb(0,0,0)"/></g><g opacity="0.1"><path d=" M 660.8 291.78 L 649.19 294.94 L 648.87 293.21 C 651.303 289.58 655.75 287.864 659.99 288.92 L 660.8 291.78 Z " fill="rgb(0,0,0)"/></g><g opacity="0.1"><path d=" M 471.78 285.67 L 458 293.13 L 457.6 290.13 C 462.51 286.97 470.82 283.6 471.54 283.31 L 471.78 285.67 Z " fill="rgb(0,0,0)"/></g><g opacity="0.1"><path d=" M 657.4 480.23 C 633.82 484.89 600.23 491.07 594.81 489.64 C 590.31 488.46 576.12 489.15 563.81 490.05 C 563.67 483.85 563.62 479.75 563.62 479.75 L 655.24 466.63 C 655.24 466.63 655.28 470.88 657.4 480.23 Z " fill="rgb(0,0,0)"/></g><path d=" M 680.86 473.75 C 680.86 473.75 603.23 490.17 594.74 487.94 C 594.74 487.94 543.31 490.13 543.31 490.13 C 524.43 503.86 531.79 484.39 531.79 484.39 C 531.79 484.39 529.7 474.45 531.73 466.27 C 533.066 460.276 533.902 454.182 534.23 448.05 C 534.23 448.05 533.31 435.29 535.54 432.22 C 535.54 432.22 539.71 407.75 539.71 407.75 C 539.71 407.75 541.28 393.18 540.95 390 C 540.95 390 541.12 377.84 541.12 377.84 L 543.31 362.84 C 527.31 361.32 477.57 333.38 477.57 333.38 C 474.84 323.46 455.84 300.74 455.84 300.74 C 455.505 298.78 454.931 296.869 454.13 295.05 C 452.72 291.69 471.62 284.14 471.62 284.14 C 471.62 284.14 486.56 301.05 489.72 305.62 C 492.88 310.19 503.44 318.52 503.44 318.52 C 505.023 318.308 506.634 318.458 508.15 318.96 C 508.235 318.975 508.319 318.999 508.4 319.03 L 508.4 319.03 C 511.879 320.256 515.163 321.977 518.15 324.14 C 525.79 323.42 531.32 328.54 531.32 328.54 C 531.32 328.54 540 326.93 541.55 328.36 C 543.1 329.79 550.49 328.02 550.49 328.02 C 550.49 328.02 557.34 311.97 562.41 316.36 C 567.48 320.75 588.26 319.74 588.26 319.74 C 590.89 315.95 597.52 313.05 601.68 311.53 C 605.229 310.187 609.106 309.974 612.78 310.92 C 614.373 311.326 615.885 312.002 617.25 312.92 L 630.33 324.78 C 630.33 324.78 633.77 319.96 633.33 318.91 C 633.33 318.91 637.52 316.83 637.52 316.83 C 637.52 316.83 643.62 314.67 645.94 313.95 C 645.94 313.95 650.5 315.67 650.69 315.89 C 650.61 315.62 648.81 310.53 649.28 306.57 C 649.75 302.61 646.43 299 646.43 299 C 653.18 280.4 670.59 295.09 670.59 295.09 C 670.59 295.09 672.89 305.02 671.33 308.92 C 669.77 312.82 673.49 320.78 673.15 322.92 C 672.81 325.06 674.22 328.64 674.38 332.68 C 674.54 336.72 672.68 344.38 671.5 347.87 C 670.32 351.36 660.5 359.38 660.5 359.38 C 660.5 359.38 660.33 371.54 656.13 378.73 C 651.93 385.92 655.62 409.89 655.62 409.89 C 655.62 409.89 660.62 428.46 666.15 434.22 C 671.68 439.98 680.86 473.75 680.86 473.75 Z " fill="rgb(70,70,70)"/><g opacity="0.1"><path d=" M 561.55 338.03 C 561.55 338.03 558.94 331.09 556.78 330.54 C 554.633 329.838 552.535 328.992 550.5 328.01 L 551.77 325.33 C 551.77 325.33 559.86 327.22 561.22 329.51 C 562.58 331.8 561.55 338.03 561.55 338.03 Z " fill="rgb(0,0,0)"/></g><g opacity="0.1"><path d=" M 518.16 324.13 C 517.81 326.28 498.94 328.92 498.94 328.92 L 508.15 318.92 L 508.15 318.92 L 508.39 319 L 508.39 319 C 511.877 320.23 515.168 321.958 518.16 324.13 Z " fill="rgb(0,0,0)"/></g><circle vector-effect="non-scaling-stroke" cx="462.2" cy="297.02" r="1.6999999999999886" fill="rgb(87,89,136)"/><circle vector-effect="non-scaling-stroke" cx="464.51" cy="300.34" r="1.6999999999999886" fill="rgb(87,89,136)"/><circle vector-effect="non-scaling-stroke" cx="466.76" cy="303.4" r="1.6999999999999886" fill="rgb(87,89,136)"/><circle vector-effect="non-scaling-stroke" cx="469.13" cy="306.72" r="1.6999999999999886" fill="rgb(87,89,136)"/><circle vector-effect="non-scaling-stroke" cx="669.83" cy="298.81" r="1.3899999999999864" fill="rgb(87,89,136)"/><circle vector-effect="non-scaling-stroke" cx="670.16" cy="301.94" r="1.3899999999999864" fill="rgb(87,89,136)"/><circle vector-effect="non-scaling-stroke" cx="670.47" cy="305.07" r="1.3899999999999864" fill="rgb(87,89,136)"/><g opacity="0.1"><path d=" M 563.88 395.73 C 563.67 395.48 614 454.25 649.88 417.79 C 649.92 417.79 591.35 428.04 563.88 395.73 Z " fill="rgb(0,0,0)"/></g><g opacity="0.1"><path d=" M 537.5 428.3 C 537.5 428.3 566.25 427.98 569.57 436.12 L 569.9 444.72 C 568.277 445.712 566.256 445.791 564.56 444.93 C 561.56 443.47 543.9 435.32 537.94 439.8 L 537.5 428.3 Z " fill="rgb(0,0,0)"/></g><path d=" M 538.05 428.28 C 538.05 428.28 565.55 427.97 568.72 435.74 L 569.04 443.93 C 567.485 444.874 565.554 444.95 563.93 444.13 C 561.1 442.75 544.17 434.97 538.47 439.25 L 538.05 428.28 Z " fill="rgb(49,49,49)"/><g opacity="0.1"><path d=" M 550.79 365.38 C 553.99 372.056 557.978 378.324 562.67 384.05 C 567.779 390.392 573.89 395.857 580.76 400.23 C 580.76 400.23 551.43 369.26 550.79 365.38 Z " fill="rgb(0,0,0)"/></g><g opacity="0.1"><path d=" M 540.11 332.32 C 540.11 332.32 545.7 352.82 558.32 359.37 L 540.11 332.32 Z " fill="rgb(0,0,0)"/></g><g opacity="0.1"><path d=" M 532.85 334.69 C 532.71 334.31 529.22 351.21 549.75 359.69 C 549.75 359.7 541.07 357.12 532.85 334.69 Z " fill="rgb(0,0,0)"/></g><g opacity="0.1"><path d=" M 657.73 315.99 C 657.41 315.99 667.94 322.15 670.84 325.08 C 670.84 325.08 663.78 315.38 657.73 315.99 Z " fill="rgb(0,0,0)"/></g><path d=" M 592.2 304.2 C 592.61 305.49 593.11 306.9 594.31 307.54 C 595.066 307.878 595.893 308.029 596.72 307.98 C 604.46 308.17 612.51 308.2 619.54 304.98 C 620.858 304.455 622.025 303.614 622.94 302.53 C 624.15 300.93 624.31 298.81 624.75 296.85 C 625.6 293.03 627.61 289.57 629.01 285.91 C 631.366 279.72 631.975 273.002 630.77 266.49 C 630.497 264.488 629.761 262.578 628.62 260.91 C 626.46 258.06 622.68 257.02 619.88 254.8 C 617.08 252.58 615.2 249.08 611.97 247.45 C 609.06 245.98 605.58 246.3 602.39 246.97 C 596.107 248.293 590.136 250.808 584.8 254.38 C 583.01 255.57 581.05 256.95 578.92 256.63 C 577.05 256.36 575.65 254.85 574.4 253.44 C 573.027 256.972 572.523 260.782 572.93 264.55 C 573.025 265.103 573.025 265.667 572.93 266.22 C 572.691 266.891 572.313 267.505 571.82 268.02 C 570 270.31 568.94 273.85 570.91 276.02 C 571.77 276.96 573.05 277.44 573.91 278.4 C 575.41 280.13 575.03 282.71 575.08 284.99 C 575.028 285.784 575.258 286.57 575.73 287.21 C 576.598 287.955 577.792 288.194 578.88 287.84 C 579.946 287.47 581.074 287.317 582.2 287.39 C 583.414 287.731 584.473 288.48 585.2 289.51 C 588.91 293.86 590.5 298.79 592.2 304.2 Z " fill="rgb(57,57,57)"/><g style="opacity:0.1;"><g opacity="0.1"><path d=" M 623.71 300.52 C 622.799 301.601 621.634 302.439 620.32 302.96 C 613.32 306.21 605.24 306.18 597.49 305.96 C 596.663 306.002 595.838 305.852 595.08 305.52 C 593.89 304.88 593.38 303.46 592.97 302.17 C 591.27 296.77 589.68 291.83 585.97 287.43 C 585.239 286.406 584.181 285.662 582.97 285.32 C 581.845 285.248 580.717 285.398 579.65 285.76 C 578.56 286.116 577.364 285.881 576.49 285.14 C 576.023 284.494 575.793 283.706 575.84 282.91 C 575.79 280.63 576.17 278.05 574.68 276.33 C 573.84 275.33 572.56 274.89 571.68 273.94 C 570.544 272.505 570.284 270.564 571 268.88 C 569.73 271.08 569.25 273.88 570.9 275.68 C 571.75 276.62 573.04 277.1 573.9 278.07 C 575.4 279.79 575.02 282.37 575.07 284.65 C 575.018 285.444 575.248 286.23 575.72 286.87 C 576.588 287.615 577.782 287.854 578.87 287.5 C 579.937 287.135 581.065 286.982 582.19 287.05 C 583.404 287.391 584.463 288.14 585.19 289.17 C 588.94 293.57 590.52 298.5 592.19 303.91 C 592.6 305.2 593.1 306.61 594.3 307.26 C 595.058 307.594 595.883 307.744 596.71 307.7 C 604.45 307.88 612.5 307.91 619.53 304.7 C 620.845 304.175 622.012 303.338 622.93 302.26 C 623.377 301.62 623.715 300.911 623.93 300.16 C 623.87 300.28 623.8 300.38 623.71 300.52 Z " fill="rgb(0,0,0)"/></g><g opacity="0.1"><path d=" M 572.99 265.49 C 573.319 265.109 573.565 264.662 573.71 264.18 C 573.81 263.631 573.81 263.069 573.71 262.52 C 573.373 259.425 573.656 256.295 574.54 253.31 L 574.39 253.14 C 573.017 256.672 572.513 260.482 572.92 264.25 C 572.983 264.66 573.006 265.075 572.99 265.49 Z " fill="rgb(0,0,0)"/></g></g><g opacity="0.1"><path d=" M 588.27 319.73 C 588.27 319.73 620.08 322.73 622.75 317.84" fill="rgb(0,0,0)"/></g><g opacity="0.1"><path d=" M 649.3 304.26 C 649.3 304.26 666.89 303.61 671.01 310.05" fill="rgb(0,0,0)"/></g><path d=" M 1033.91 638.38 C 1033.91 638.38 1039.84 646.13 1031.17 657.84 C 1031.17 657.84 1015.36 679.43 1018.25 686.73 C 1018.25 686.73 1031.33 664.99 1041.97 664.68 C 1052.61 664.37 1045.62 651.44 1033.91 638.38 Z " fill="rgb(6,214,160)"/><g opacity="0.1"><path d=" M 1033.91 638.38 C 1034.431 639.126 1034.839 639.945 1035.12 640.81 C 1045.51 653.01 1051.04 664.4 1041.06 664.68 C 1031.76 664.95 1020.6 681.58 1017.93 685.77 C 1018.019 686.109 1018.126 686.443 1018.25 686.77 C 1018.25 686.77 1031.33 665.03 1041.97 664.72 C 1052.61 664.41 1045.62 651.44 1033.91 638.38 Z " fill="rgb(0,0,0)"/></g><path d=" M 1044.94 648.25 C 1044.94 650.98 1044.63 653.19 1044.25 653.19 C 1043.87 653.19 1043.57 650.98 1043.57 648.25 C 1043.57 645.52 1043.95 646.81 1044.33 646.81 C 1044.71 646.81 1044.94 645.52 1044.94 648.25 Z " fill="rgb(255,208,55)"/><path d=" M 1048.72 651.51 C 1046.32 652.81 1044.23 653.6 1044.05 653.27 C 1043.87 652.94 1045.67 651.61 1048.05 650.27 C 1050.43 648.93 1049.5 649.91 1049.69 650.27 C 1049.88 650.63 1051.11 650.2 1048.72 651.51 Z " fill="rgb(255,208,55)"/><path d=" M 1002.59 638.38 C 1002.59 638.38 996.66 646.13 1005.32 657.84 C 1005.32 657.84 1021.14 679.43 1018.25 686.73 C 1018.25 686.73 1005.17 664.99 994.53 664.68 C 983.89 664.37 990.88 651.44 1002.59 638.38 Z " fill="rgb(6,214,160)"/><g opacity="0.1"><path d=" M 1002.59 638.38 C 1002.069 639.126 1001.661 639.945 1001.38 640.81 C 990.99 653.01 985.46 664.4 995.44 664.68 C 1004.74 664.95 1015.89 681.58 1018.57 685.77 C 1018.481 686.109 1018.374 686.443 1018.25 686.77 C 1018.25 686.77 1005.17 665.03 994.53 664.72 C 983.89 664.41 990.88 651.44 1002.59 638.38 Z " fill="rgb(0,0,0)"/></g><path d=" M 991.56 648.25 C 991.56 650.98 991.87 653.19 992.25 653.19 C 992.63 653.19 992.93 650.98 992.93 648.25 C 992.93 645.52 992.55 646.81 992.17 646.81 C 991.79 646.81 991.56 645.52 991.56 648.25 Z " fill="rgb(255,208,55)"/><path d=" M 987.78 651.51 C 990.18 652.81 992.27 653.6 992.45 653.27 C 992.63 652.94 990.83 651.61 988.45 650.27 C 986.07 648.93 986.99 649.91 986.81 650.27 C 986.63 650.63 985.38 650.2 987.78 651.51 Z " fill="rgb(255,208,55)"/><g opacity="0.1"><ellipse vector-effect="non-scaling-stroke" cx="1018.24" cy="736.53" rx="62" ry="9.509999999999991" fill="rgb(240,40,40)"/></g><path d=" M 1050.16 676.27 L 1049.86 678.69 L 1049.45 682.11 L 1049.28 683.54 L 1048.86 686.96 L 1048.68 688.39 L 1048.26 691.8 L 1043.52 730.7 C 1043.09 734.17 1037.42 736.88 1030.58 736.88 L 1005.92 736.88 C 999.07 736.88 993.41 734.17 992.99 730.7 L 988.23 691.8 L 987.82 688.39 L 987.65 686.96 L 987.22 683.54 L 987.05 682.11 L 986.63 678.69 L 986.34 676.27 C 986.1 674.27 989.17 672.65 993.04 672.65 L 1043.5 672.65 C 1047.33 672.65 1050.41 674.3 1050.16 676.27 Z " fill="rgb(240,40,40)"/><path d=" M 1049.86 678.69 L 1049.44 682.11 L 987.04 682.11 L 986.63 678.69 L 1049.86 678.69 L 1049.86 678.69 Z " fill="rgb(255,255,255)"/><path d=" M 1049.27 683.53 L 1048.86 686.96 L 987.64 686.96 L 987.22 683.53 L 1049.27 683.53 L 1049.27 683.53 Z " fill="rgb(255,255,255)"/><path d=" M 1048.67 688.38 L 1048.26 691.8 L 988.23 691.8 L 987.81 688.38 L 1048.67 688.38 L 1048.67 688.38 Z " fill="rgb(255,255,255)"/></g></svg>